<?xml version="1.0" encoding="UTF-8" standalone="no"?>

<svg
   version="1.1"
   id="svg2"
   width="4000"
   height="4000"
   viewBox="0 0 4000 4000"
   sodipodi:docname="vecteezy_hamburger-menu-filled-icon-in-transparent-background-basic_21190402.eps"
   xmlns:inkscape="http://www.inkscape.org/namespaces/inkscape"
   xmlns:sodipodi="http://sodipodi.sourceforge.net/DTD/sodipodi-0.dtd"
   xmlns="http://www.w3.org/2000/svg"
   xmlns:svg="http://www.w3.org/2000/svg">
  <defs
     id="defs6" />
  <sodipodi:namedview
     id="namedview4"
     pagecolor="#ffffff"
     bordercolor="#000000"
     borderopacity="0.25"
     inkscape:showpageshadow="2"
     inkscape:pageopacity="0.0"
     inkscape:pagecheckerboard="0"
     inkscape:deskcolor="#d1d1d1" />
  <g
     id="g8"
     inkscape:groupmode="layer"
     inkscape:label="ink_ext_XXXXXX"
     transform="matrix(1.3333333,0,0,-1.3333333,0,4000)">
    <g
       id="g10"
       transform="scale(0.1)">
      <path
         d="m 8665,18614.5 h 12650.8 c 498.8,0 903.6,404.8 903.6,903.6 0,498.8 -404.8,903.7 -903.6,903.7 H 8665 c -498.8,0 -903.63,-404.9 -903.63,-903.7 0,-498.8 404.86,-903.6 903.63,-903.6 z m 0,-4518.1 h 12650.8 c 498.8,0 903.6,404.8 903.6,903.6 0,498.8 -404.8,903.6 -903.6,903.6 H 8665 c -498.8,0 -903.63,-404.8 -903.63,-903.6 0,-498.8 404.86,-903.6 903.63,-903.6 z m 0,-4518.2 h 12650.8 c 498.8,0 903.6,404.9 903.6,903.7 0,498.8 -404.8,903.5 -903.6,903.5 H 8665 c -498.8,0 -903.63,-404.8 -903.63,-903.5 0,-498.9 404.86,-903.7 903.63,-903.7 v 0"
         style="fill:#100f0d;fill-opacity:1;fill-rule:evenodd;stroke:none"
         id="path12" />
    </g>
  </g>
</svg>
