<svg width="2438" height="3366" viewBox="0 0 2438 3366" fill="none" xmlns="http://www.w3.org/2000/svg">
<path fill-rule="evenodd" clip-rule="evenodd" d="M1123.05 373.986C1126.06 372.326 1129.73 369.846 1131.2 368.474C1133.01 366.784 1134.91 366.176 1137.06 366.589C1139.36 367.03 1140.65 366.534 1141.69 364.812C1142.48 363.498 1145.7 361.1 1148.86 359.482C1152.01 357.864 1155.18 355.443 1155.9 354.101C1156.88 352.252 1158.44 351.663 1162.34 351.663C1166.19 351.663 1167.86 351.041 1169.02 349.178C1169.88 347.812 1171.09 347.016 1171.73 347.409C1173.75 348.657 1181.44 346.61 1181.44 344.825C1181.44 343.893 1182.18 343.132 1183.09 343.132C1183.99 343.132 1186.22 341.752 1188.04 340.066C1189.85 338.379 1191.85 337.314 1192.47 337.7C1193.1 338.085 1193.61 337.889 1193.61 337.263C1193.61 336.636 1195.38 335.705 1197.56 335.192C1199.73 334.68 1201.79 334.192 1202.12 334.108C1202.45 334.023 1203.43 333.51 1204.28 332.969C1205.13 332.427 1207.34 332.315 1209.18 332.722C1212.11 333.365 1214.4 334.879 1221.28 340.716C1222.13 341.438 1225.17 341.718 1228.2 341.354C1231.18 340.995 1233.93 341.231 1234.33 341.875C1234.99 342.951 1237.61 342.114 1246.85 337.868C1248.37 337.17 1252.75 336.5 1256.58 336.38C1265.42 336.102 1264.98 336.25 1265.73 333.382C1266.11 331.902 1267.48 330.873 1269.21 330.761C1274.65 330.411 1279.37 331.189 1280.3 332.587C1280.95 333.572 1281.61 333.347 1282.5 331.833C1283.2 330.646 1284.31 330.008 1284.96 330.415C1285.62 330.822 1286.82 330.688 1287.63 330.116C1290.23 328.272 1298.22 329.976 1298.22 332.376C1298.22 333.073 1299.11 333.301 1300.2 332.883C1301.28 332.464 1302.92 332.741 1303.83 333.497C1304.74 334.254 1306.83 334.535 1308.47 334.123C1310.67 333.57 1311.92 334.042 1313.23 335.92C1314.72 338.046 1315.44 338.24 1317.58 337.091C1319.51 336.055 1320.07 336.067 1319.83 337.138C1319.65 337.921 1320.28 338.842 1321.22 339.184C1322.42 339.621 1322.7 339.197 1322.15 337.775C1321.05 334.901 1326.22 332.958 1335.93 332.594C1351.12 332.025 1361.62 330.951 1363.89 329.735C1367.59 327.747 1370.59 328.307 1373.63 331.554C1376.68 334.798 1379.84 335.854 1377.28 332.773C1376.02 331.251 1376.18 330.945 1378.22 330.945C1379.57 330.945 1380.98 330.15 1381.35 329.179C1381.83 327.917 1383.63 327.508 1387.67 327.746C1392.37 328.024 1393.82 328.729 1396.35 331.969L1399.39 335.858L1402.81 332.182C1404.7 330.161 1407.05 328.508 1408.05 328.508C1409.05 328.508 1410.18 327.685 1410.57 326.68C1410.95 325.674 1412.43 324.852 1413.85 324.852C1415.27 324.852 1417.38 323.672 1418.55 322.229C1420.38 319.956 1421.97 319.596 1430.45 319.516C1436.99 319.455 1440.89 319.97 1442.21 321.069C1443.71 322.316 1444.59 322.375 1445.86 321.319C1447.06 320.328 1448.49 320.285 1450.81 321.17C1453.39 322.155 1453.91 322.952 1453.27 324.965C1452.63 327.005 1452.91 327.416 1454.71 327.025C1455.95 326.755 1456.82 325.881 1456.66 325.084C1456.49 324.286 1456.9 323.633 1457.57 323.633C1458.24 323.633 1458.78 324.118 1458.78 324.709C1458.78 326.174 1464.76 327.227 1465.58 325.907C1466.61 324.223 1478.54 324.702 1482.11 326.57C1484.94 328.047 1485.47 328.034 1486.06 326.477C1487.01 324.001 1491.69 324.915 1493.33 327.898C1494.07 329.239 1494.79 330.55 1494.94 330.811C1495.09 331.073 1497.49 331.417 1500.28 331.574C1503.46 331.753 1505.76 332.596 1506.46 333.839C1507.83 336.297 1511.91 336.369 1517.48 334.037C1521.37 332.41 1521.91 332.445 1523.72 334.438C1524.8 335.638 1525.7 337.126 1525.72 337.744C1525.73 338.361 1527.65 339.815 1529.97 340.974C1533.57 342.765 1534.2 342.81 1534.2 341.278C1534.2 339.273 1535.23 339.015 1541.68 339.398C1544.11 339.542 1546.47 339.07 1546.92 338.35C1548.38 335.977 1552.03 336.981 1553.47 340.153C1554.25 341.867 1555.43 342.936 1556.09 342.527C1556.77 342.104 1556.98 342.598 1556.56 343.678C1555.66 346.026 1555.93 346.024 1561.66 343.625C1565.91 341.847 1566.42 341.847 1567.72 343.625C1569.79 346.466 1572.01 346.032 1577.16 341.784L1581.74 337.999L1583.96 340.565C1586.57 343.577 1588.43 343.825 1589.82 341.346C1590.37 340.364 1592.72 339.405 1595.05 339.214C1598.93 338.896 1599.26 339.131 1599.08 342.035L1598.87 345.205L1603.29 342.949C1605.72 341.71 1608.41 340.694 1609.27 340.694C1610.13 340.694 1610.84 339.734 1610.84 338.562C1610.84 336.85 1612.04 336.378 1616.92 336.172C1620.26 336.031 1623 336.442 1623 337.086C1623 337.731 1623.53 338.257 1624.18 338.257C1624.83 338.257 1625.04 337.434 1624.66 336.429C1624.2 335.242 1624.69 334.601 1626.04 334.601C1627.4 334.601 1627.88 335.242 1627.43 336.429C1626.59 338.613 1627.91 338.742 1631.99 336.879C1633.65 336.12 1636 335.918 1637.22 336.43C1640.72 337.909 1644.9 338.194 1644.9 336.956C1644.9 334.812 1647.16 335.82 1647.96 338.316C1648.4 339.727 1648.05 341.656 1647.13 342.756C1645.71 344.477 1645.87 344.592 1648.55 343.752C1650.22 343.231 1651.86 342.403 1652.19 341.913C1653.75 339.64 1658.33 339.457 1661.51 341.544C1665.92 344.436 1670.65 344.463 1672.7 341.607C1673.65 340.278 1675.13 339.615 1676.22 340.033C1677.25 340.429 1679.11 339.833 1680.35 338.707C1682.51 336.746 1683.25 337.404 1682.79 340.883C1682.61 342.251 1686.14 343.089 1686.9 341.86C1688.06 339.972 1689.57 340.519 1690.24 343.066C1690.76 345.062 1691.89 345.418 1697.37 345.321C1700.96 345.256 1705.19 344.726 1706.78 344.141C1709.3 343.213 1709.58 343.391 1709.02 345.542C1707.97 349.559 1710.03 348.396 1715.76 341.734C1720.37 336.367 1721.6 335.574 1724.27 336.244C1726.65 336.842 1727.24 337.609 1726.75 339.471C1725.87 342.841 1730.41 342.767 1733.81 339.356C1736.7 336.468 1742.45 334.461 1744.39 335.665C1745.1 336.105 1745.59 337.554 1745.47 338.885C1745.3 340.808 1745.87 341.217 1748.29 340.88C1749.96 340.647 1752.04 339.879 1752.9 339.172C1754.87 337.55 1767.91 340.408 1769.35 342.78C1769.89 343.672 1770.85 344.084 1771.48 343.695C1772.11 343.306 1772.62 343.569 1772.62 344.279C1772.62 346.537 1776.27 345.67 1779.53 342.638C1781.94 340.402 1784.08 339.696 1788.57 339.661C1791.81 339.637 1794.78 340.134 1795.17 340.768C1795.61 341.488 1796.7 341.477 1798.08 340.738C1799.42 340.022 1801.75 339.977 1804 340.624C1806.04 341.21 1808.02 341.385 1808.39 341.014C1808.76 340.642 1812.61 340.139 1816.94 339.896C1821.28 339.654 1826.25 338.912 1827.99 338.247C1832.09 336.687 1837.09 336.694 1837.09 338.257C1837.09 338.927 1837.91 339.476 1838.91 339.476C1839.92 339.476 1840.74 338.927 1840.74 338.257C1840.74 337.587 1841.38 337.038 1842.17 337.038C1842.95 337.038 1842.27 338.497 1840.65 340.28C1838.03 343.153 1837.98 343.415 1840.13 342.58C1843.01 341.465 1844.68 341.075 1850.77 340.097C1853.62 339.64 1855.34 338.698 1855.34 337.593C1855.34 335.188 1857.77 335.405 1861.3 338.123C1863.47 339.798 1864.03 341.105 1863.47 343.231C1863 345.039 1863.45 346.888 1864.69 348.266C1867.01 350.833 1868.72 351.081 1868.72 348.855C1868.72 347.116 1876.1 339.476 1877.78 339.476C1878.36 339.476 1880.73 338.019 1883.06 336.24C1886.48 333.631 1887.72 333.267 1889.46 334.361C1891.57 335.678 1894.21 335.557 1899.41 333.903C1901.36 333.28 1901.76 333.527 1901.2 335.008C1900.72 336.267 1901.01 336.705 1902.07 336.297C1902.96 335.957 1904.03 336.592 1904.46 337.707C1905.02 339.17 1906.08 339.522 1908.26 338.972C1911.52 338.154 1912.19 339.308 1909.83 341.669C1907.36 344.142 1910.68 343.351 1914.11 340.649C1916.74 338.576 1917.66 338.414 1919.65 339.662C1921.56 340.854 1922.43 340.833 1923.97 339.557C1925.28 338.461 1925.89 338.395 1925.89 339.35C1925.89 340.208 1927 340.46 1928.8 340.01C1930.4 339.607 1932.07 339.871 1932.52 340.596C1932.96 341.321 1932.75 341.913 1932.04 341.913C1931.33 341.913 1930.75 342.466 1930.75 343.142C1930.75 343.873 1931.8 343.75 1933.35 342.837C1935.09 341.806 1936.09 341.725 1936.41 342.593C1936.92 343.975 1952.78 343.95 1955.02 342.564C1955.72 342.126 1956.3 342.363 1956.3 343.088C1956.3 343.872 1957.47 343.638 1959.19 342.511C1963.04 339.983 1972.72 338.986 1979.11 340.46C1982.36 341.211 1984.28 341.223 1984.28 340.493C1984.28 339.855 1984.83 339.677 1985.51 340.097C1986.19 340.519 1986.51 341.255 1986.21 341.735C1985.49 342.901 1991.62 342.65 1994.34 341.402C1995.53 340.858 1998.65 340.96 2001.28 341.629C2004.72 342.503 2006.22 342.458 2006.63 341.465C2007.02 340.536 2007.66 340.682 2008.6 341.913C2009.65 343.278 2010.16 343.358 2010.62 342.234C2010.95 341.405 2012.19 339.538 2013.37 338.084C2015.27 335.725 2015.93 335.592 2019.52 336.846C2024.35 338.531 2047.63 335.558 2052.05 332.693C2055.61 330.383 2058.04 330.483 2059 332.977C2059.59 334.526 2060.11 334.671 2061.19 333.586C2063.18 331.595 2067.62 331.814 2069.43 333.992C2070.26 334.997 2071.99 335.82 2073.27 335.82C2074.56 335.82 2077.09 336.865 2078.9 338.144C2083.5 341.385 2090.61 342.449 2092.83 340.229C2093.79 339.266 2095.23 338.886 2096.04 339.383C2096.84 339.88 2102.72 340.162 2109.09 340.01C2118.08 339.794 2120.84 340.113 2121.34 341.432C2121.7 342.366 2123 343.132 2124.22 343.132C2125.45 343.132 2126.79 343.68 2127.21 344.35C2127.62 345.021 2130.31 345.569 2133.18 345.569C2136.05 345.569 2140.13 346.174 2142.24 346.912C2144.36 347.651 2147.04 347.841 2148.2 347.335C2151.1 346.072 2154.62 346.623 2158.15 348.892C2161.85 351.273 2180.92 352.311 2183.37 350.267C2184.63 349.219 2185.56 349.368 2187.23 350.885C2190.6 353.934 2193.28 353.377 2193.72 349.541C2194.14 345.929 2198.37 343.896 2198.37 347.308C2198.37 349.697 2201.23 349.808 2203.15 347.493C2204.35 346.046 2205.12 346.021 2207.86 347.345C2218.4 352.436 2220.22 353.059 2222.46 352.345C2223.82 351.915 2225.3 352.178 2225.77 352.93C2226.23 353.682 2227.83 353.99 2229.32 353.615C2231.31 353.115 2232.43 353.66 2233.49 355.649C2234.62 357.751 2236.22 358.448 2240.57 358.732C2243.67 358.933 2247.17 359.619 2248.35 360.255C2251.97 362.192 2254.24 361.563 2255.03 358.409C2256.08 354.219 2260.3 353.093 2262.9 356.311C2264.64 358.47 2265.26 358.604 2267.23 357.254C2269.77 355.51 2277.43 355.132 2277.43 356.751C2277.43 358.054 2282.38 355.297 2284.36 352.881C2285.19 351.876 2285.89 350.079 2285.91 348.89C2285.93 347.701 2287.24 346.235 2288.82 345.633C2290.4 345.031 2292.03 343.673 2292.43 342.616C2292.84 341.558 2294.35 340.694 2295.78 340.694C2297.8 340.694 2298.25 340.136 2297.76 338.257C2297.37 336.746 2297.72 335.82 2298.7 335.82C2299.57 335.82 2300.62 333.953 2301.05 331.673C2301.48 329.391 2302.68 327.198 2303.72 326.798C2306.27 325.818 2306.37 325.845 2306.96 327.594C2307.24 328.431 2307.22 327.54 2306.92 325.613C2306.53 323.18 2306.79 322.374 2307.77 322.976C2308.54 323.453 2309.89 323.238 2310.78 322.498C2311.67 321.759 2313.35 321.52 2314.52 321.968C2316.24 322.628 2316.49 322.303 2315.84 320.263C2315.01 317.643 2316.86 315.392 2318.14 317.466C2318.54 318.118 2319.69 318.338 2320.69 317.954C2322.02 317.442 2322.15 316.835 2321.2 315.687C2320.18 314.455 2320.76 314.185 2323.91 314.426C2326.11 314.595 2329 314.345 2330.33 313.871C2332.63 313.049 2332.61 312.97 2329.96 312.125C2326.14 310.911 2327.14 308.982 2333.16 305.948C2337.09 303.964 2337.91 303.058 2336.79 301.932C2335.66 300.806 2336.18 300.478 2339.09 300.478C2341.74 300.478 2343.42 299.592 2344.82 297.446C2345.91 295.779 2349.52 293.175 2352.83 291.657C2356.93 289.781 2359.23 287.862 2360.01 285.647C2360.74 283.615 2362.24 282.242 2364.01 281.991C2366.08 281.697 2367 280.608 2367.45 277.933C2368.19 273.495 2373.16 267.574 2376.14 267.574C2377.53 267.574 2378.08 266.941 2377.65 265.84C2377.27 264.839 2378.09 263.518 2379.58 262.719C2381.43 261.727 2381.94 260.635 2381.39 258.881C2380.63 256.501 2380.72 256.488 2384.48 258.435C2386.61 259.539 2388.54 260.257 2388.76 260.033C2388.99 259.807 2389.51 256.654 2389.92 253.026C2390.5 247.935 2391.42 245.791 2393.94 243.624C2397.12 240.88 2397.22 240.871 2398.47 243.201C2399.72 245.544 2399.76 245.545 2401.2 243.248C2402 241.963 2404.61 239.979 2407.01 238.84C2409.94 237.444 2411.14 236.179 2410.68 234.968C2410.11 233.469 2410.96 233.31 2415.78 234.013C2421.14 234.793 2421.39 234.716 2419.15 233.004C2416.88 231.278 2416.84 230.916 2418.58 227.73C2419.87 225.36 2421.74 224.079 2424.66 223.558C2426.98 223.143 2428.4 222.731 2427.82 222.644C2427.23 222.555 2427.44 221.66 2428.27 220.655C2429.1 219.649 2429.4 218.827 2428.94 218.827C2428.47 218.827 2429.2 217.42 2430.55 215.702C2431.93 213.94 2432.67 211.723 2432.25 210.617C2431.67 209.116 2432.01 208.851 2433.67 209.489C2435.28 210.111 2435.66 209.854 2435.13 208.481C2434.7 207.354 2435.12 206.64 2436.21 206.64C2437.2 206.64 2438 205.817 2438 204.812C2438 203.693 2436.86 202.984 2435.07 202.984C2432.74 202.984 2432.28 202.486 2432.78 200.54C2433.45 197.974 2431.1 194.063 2429.49 195.063C2428.97 195.383 2427.87 194.829 2427.04 193.83C2425.78 192.305 2426.03 192.016 2428.6 192.016C2431.72 192.016 2433.2 190.172 2432.25 187.446C2431.95 186.609 2430.65 185.922 2429.35 185.922C2428.04 185.922 2426.66 185.1 2426.28 184.094C2425.89 183.089 2424.81 182.266 2423.88 182.266C2421.54 182.266 2421.74 178.704 2424.14 177.784C2425.63 177.211 2425.2 176.661 2422.33 175.449C2420.04 174.486 2418.81 173.227 2419.19 172.239C2419.57 171.239 2418.16 169.864 2415.52 168.667C2413.17 167.596 2411.24 167.213 2411.24 167.814C2411.24 168.805 2408.48 168.493 2402.32 166.805C2400.67 166.354 2400.27 165.45 2400.8 163.351C2401.32 161.264 2400.73 159.893 2398.57 158.19C2396.95 156.916 2395.44 154.271 2395.22 152.313C2394.91 149.595 2394.27 148.847 2392.51 149.151C2391.25 149.371 2389.76 148.822 2389.21 147.933C2388.4 146.64 2387.72 146.614 2385.8 147.806C2383.87 149.003 2382.55 148.939 2379.07 147.484C2373.8 145.278 2372.87 140.84 2377.79 141.381C2382.11 141.856 2381.57 139.969 2377.1 138.985C2375.04 138.534 2373.09 137.442 2372.75 136.561C2372.41 135.679 2370.81 134.623 2369.18 134.215C2366.5 133.54 2365.74 132.052 2365.9 127.731C2365.94 126.892 2364.89 126.207 2363.57 126.207C2361.62 126.207 2361.24 125.483 2361.51 122.247C2361.69 120.068 2362.58 117.399 2363.47 116.314C2364.92 114.565 2364.72 114.402 2361.71 114.872L2358.32 115.402L2361.2 112.884C2364.01 110.417 2364.02 110.364 2361.5 110.364C2360.09 110.364 2358.93 109.816 2358.93 109.146C2358.93 108.476 2357.84 107.927 2356.5 107.927C2355.16 107.927 2354.07 107.379 2354.07 106.708C2354.07 106.038 2355.23 105.49 2356.64 105.49C2359.09 105.49 2359.12 105.352 2357.25 102.486C2356.17 100.834 2355.28 98.6591 2355.28 97.6537C2355.28 96.6483 2354.19 95.2395 2352.85 94.5217C2351.38 93.7356 2350.42 91.9698 2350.42 90.0747C2350.42 87.1913 2350.09 86.9939 2346.46 87.6691C2339.78 88.9134 2337.88 89.4349 2330.96 91.932C2327.28 93.2591 2321.29 94.685 2317.66 95.1018C2312.44 95.6989 2310.08 96.7397 2306.43 100.037C2301.23 104.744 2294.51 107.925 2289.75 107.932C2288 107.934 2284.64 109.118 2282.3 110.562C2279.96 112.005 2273.14 114.18 2267.15 115.395C2257.87 117.276 2255.98 117.354 2254.38 115.924C2252.14 113.927 2247.02 113.111 2244.92 114.419C2244.1 114.932 2242.3 114.748 2240.92 114.01C2239.54 113.271 2237.42 112.983 2236.2 113.371C2233.48 114.237 2229.76 112.947 2230.68 111.455C2231.05 110.856 2230 110.364 2228.34 110.364C2226.69 110.364 2225.12 109.737 2224.87 108.972C2224.52 107.933 2223.72 107.944 2221.72 109.014C2219.55 110.181 2219.04 110.126 2219.04 108.722C2219.04 107.771 2217.88 106.688 2216.45 106.314C2214.72 105.86 2214.11 105.004 2214.59 103.735C2215.03 102.589 2214.66 101.834 2213.67 101.834C2209.69 101.834 2201.24 95.9085 2200.62 92.6815C2200.34 91.2312 2199.19 90.2563 2197.74 90.2563C2196.41 90.2563 2194.91 89.2387 2194.41 87.9957C2193.81 86.5357 2192.78 86.0068 2191.49 86.5028C2190.36 86.9366 2188.43 86.3309 2187.04 85.1062C2184.68 83.0332 2184.61 83.0356 2185.37 85.1403C2185.81 86.348 2185.68 87.0305 2185.08 86.6576C2184.47 86.2834 2183.63 83.8863 2183.2 81.3307L2182.41 76.6827L2176.1 76.8692C2172.62 76.9715 2169.42 76.5085 2168.98 75.8406C2168.49 75.1021 2167.39 75.4189 2166.15 76.6534C2163.61 79.2017 2162.29 79.2102 2160.88 76.69C2160.19 75.453 2157.79 74.5512 2154.54 74.3038C2151.66 74.0857 2148.92 73.2765 2148.44 72.5063C2147.82 71.4923 2147.35 71.4789 2146.75 72.4551C2146.29 73.1973 2144.51 73.8042 2142.8 73.8042C2140.01 73.8042 2139.86 73.5812 2141.35 71.6922C2142.93 69.6899 2142.85 69.6899 2139.72 71.6922C2137.9 72.8536 2135.2 73.8042 2133.72 73.8042C2129.57 73.8042 2122.95 71.0561 2122.95 69.3317C2122.95 68.4822 2122.22 68.0667 2121.33 68.4091C2120.44 68.7503 2119.07 67.7729 2118.28 66.2374C2116.89 63.5259 2116.87 63.5222 2117.53 66.1253C2118.61 70.4052 2114.75 73.2948 2108.11 73.1668C2105.01 73.1071 2101.66 72.3807 2100.67 71.552C2099.22 70.3528 2098.73 70.3663 2098.23 71.6203C2097.83 72.6221 2097.56 72.4185 2097.5 71.0622C2097.4 68.8966 2095.67 68.3738 2089.99 68.7979C2087.62 68.9758 2085.58 67.6303 2081.78 63.3735C2079 60.2598 2076.72 56.7256 2076.72 55.5191C2076.72 54.1908 2075.32 52.8356 2073.17 52.0849C2071.22 51.4024 2068.46 49.6829 2067.05 48.2644C2065.63 46.8459 2064.02 45.9623 2063.48 46.2999C2062.93 46.6387 2061.45 46.128 2060.18 45.1653C2058.91 44.2025 2056.89 43.3969 2055.7 43.3762C2052.84 43.325 2047.38 39.6995 2048.18 38.3906C2049.05 36.9928 2044.71 34.8065 2041.07 34.8065C2039.43 34.8065 2037.42 33.9839 2036.58 32.9785C2034.14 30.0281 2031.86 30.8617 2030.76 35.1112C2030.2 37.2902 2029.5 39.0231 2029.21 38.9646C2028.91 38.9061 2025.8 38.4759 2022.29 38.0092C2018.78 37.5424 2015.9 36.6309 2015.9 35.9838C2015.9 35.3366 2014.87 34.8065 2013.6 34.8065C2012.33 34.8065 2010.98 33.9839 2010.6 32.9785C2010.2 31.9487 2008.39 31.1505 2006.45 31.1505C2004.56 31.1505 2002.27 30.4644 2001.37 29.6271C2000.04 28.3889 1999.92 28.4462 2000.73 29.9318C2001.45 31.2565 2001.05 31.1724 1999.29 29.6271C1996.2 26.9204 1995.65 26.9509 1994.89 29.8757C1994.52 31.287 1992.85 32.5374 1990.79 32.9432C1988.88 33.3197 1985.29 34.0839 1982.81 34.6408C1979.99 35.2769 1977.85 35.1904 1977.07 34.4068C1976.21 33.5537 1975.1 33.8059 1973.57 35.2013C1972.33 36.325 1970.67 37.2439 1969.89 37.2439C1969.1 37.2439 1968.46 37.8386 1968.46 38.5637C1968.46 39.29 1967.78 39.6325 1966.94 39.3254C1966.11 39.0183 1963.78 39.7519 1961.77 40.9572C1959.77 42.1612 1956.34 43.0204 1954.17 42.8669C1952 42.7133 1950.22 43.0679 1950.22 43.6541C1950.22 44.2403 1949.19 44.3926 1947.93 43.9929C1946.54 43.5505 1945.38 43.9356 1944.98 44.9727C1944.23 46.9518 1940.74 46.6667 1933.8 44.055C1927.43 41.6616 1924.67 41.6677 1924.67 44.077C1924.67 45.3176 1924 45.7783 1922.85 45.3334C1921.84 44.9483 1921.02 45.1177 1921.02 45.7112C1921.02 47.7866 1914.41 49.0163 1908.88 47.967C1904.07 47.0542 1903.18 47.2285 1901.73 49.3684C1900.43 51.2915 1899.59 51.5499 1897.78 50.5798C1896.51 49.8998 1895.42 49.7755 1895.35 50.302C1895.28 50.8285 1895.14 52.3555 1895.04 53.696C1894.81 57.023 1888.22 57.324 1885.97 54.1104C1885.08 52.8552 1883.88 52.1276 1883.28 52.4956C1882.69 52.8625 1879.43 50.3934 1876.03 47.0091C1871.15 42.1429 1869.42 41.0912 1867.75 41.9833C1864.3 43.8369 1858.93 42.1393 1857.66 38.7892C1856.95 36.9234 1855.87 36.0289 1854.8 36.4371C1852.3 37.3974 1844.09 34.8651 1842.46 32.6312C1841.21 30.919 1840.73 30.9847 1837.85 33.2539C1834.77 35.6779 1830.54 35.7948 1829.12 33.494C1828.78 32.9334 1827.81 32.7409 1826.96 33.0663C1826.12 33.3904 1822.99 32.7969 1820.02 31.7464C1817.05 30.6959 1814.47 30.2694 1814.3 30.7983C1814.12 31.3272 1807.82 31.5831 1800.29 31.3662C1792.77 31.1493 1785.51 30.9665 1784.18 30.9592C1779.92 30.9348 1772.08 31.9901 1770.09 32.8529C1769.04 33.3124 1766.64 33.1052 1764.78 32.3923C1762.47 31.5161 1760.9 31.4966 1759.89 32.3326C1759.07 33.0114 1758.03 33.1844 1757.56 32.7164C1757.09 32.2485 1753.64 31.7086 1749.9 31.5161C1746.15 31.3235 1742.34 30.5472 1741.43 29.7904C1740.19 28.757 1739.78 28.7874 1739.78 29.9135C1739.78 30.7373 1738.97 31.1017 1737.99 30.7252C1737.01 30.3474 1735.88 30.5631 1735.49 31.2041C1734.34 33.0602 1731.06 32.5556 1729.39 30.2657C1728.54 29.1092 1726.57 28.1501 1724.99 28.133C1723.42 28.1172 1722.23 27.5554 1722.34 26.8851C1722.45 26.2148 1720.81 25.5982 1718.69 25.5141C1703.56 24.9182 1702.11 24.6573 1701.4 22.4272C1701 21.1841 1699.55 20.1824 1698.13 20.1824C1696.72 20.1824 1694.62 19.3195 1693.46 18.2666C1691.77 16.7335 1690.46 16.5934 1686.96 17.5622C1684.55 18.2288 1682.87 18.3019 1683.23 17.7243C1683.58 17.1466 1682.9 16.7408 1681.72 16.8225C1675.57 17.2478 1672.31 14.9567 1672.63 10.433C1672.65 10.0978 1671.38 9.74686 1669.8 9.65179C1668.22 9.55798 1665.31 8.32468 1663.33 6.90979C1659.62 4.26282 1653.57 3.50479 1651.53 5.43152C1650.19 6.69162 1644.9 4.99155 1644.9 3.30246C1644.9 1.51712 1639.6 0.620178 1638.61 2.23615C1637.92 3.34879 1636.83 3.3671 1634.05 2.31415C1631.09 1.19418 1630.11 1.27219 1628.91 2.72C1628.09 3.70346 1626.4 4.23962 1625.14 3.90936C1623.81 3.56204 1622.57 4.05441 1622.17 5.07932C1621.77 6.13589 1620.61 6.56857 1619.31 6.15421C1618.11 5.77155 1616.77 6.02988 1616.34 6.72696C1614.99 8.91934 1613.35 8.11505 1612.53 4.85995C1611.22 -0.362061 1603.36 -1.6539 1597.26 2.35068C1595.49 3.51575 1592.75 4.35419 1591.18 4.21402C1585.42 3.70096 1583.13 4.37613 1582.51 6.77695C1581.99 8.76337 1580.78 9.24109 1575.98 9.35806C1572.74 9.43851 1569.62 9.41904 1569.05 9.31546C1568.47 9.21307 1567.24 9.76389 1566.31 10.539C1565.03 11.5992 1564.2 11.6029 1562.94 10.5561C1561.62 9.45926 1561.12 9.70905 1560.59 11.7357C1560.08 13.6905 1559.31 14.1146 1557.39 13.5052C1555.71 12.9702 1554.64 13.3115 1554.17 14.5229C1553.67 15.8256 1552.21 16.1924 1549.01 15.8134C1546.55 15.5233 1545.21 15.6062 1546.03 15.9974C1548.19 17.0296 1544.56 22.1981 1541.05 23.0804C1539.54 23.4606 1537.62 25.0218 1536.78 26.5476C1535.02 29.771 1530.05 33.6987 1527.19 34.1191C1526.1 34.2788 1524.7 35.9386 1524.08 37.8069C1522.57 42.3416 1518.88 45.888 1516.59 45.0056C1515.24 44.4877 1514.52 45.3469 1513.96 48.1316C1513.39 51.0271 1512.16 52.4054 1508.98 53.735C1505.03 55.39 1504.64 55.3363 1502.66 52.8904C1500.93 50.7541 1499.91 50.4677 1497 51.3098C1495.05 51.8741 1492.63 52.4018 1491.63 52.4822C1490.62 52.5627 1488.98 53.0038 1487.98 53.4633C1486.97 53.9227 1481.77 53.2415 1476.42 51.9496C1470.6 50.5457 1466.52 50.0778 1466.27 50.7858C1466.02 51.4707 1465.05 51.3123 1463.97 50.4092C1462.94 49.55 1460.42 48.764 1458.39 48.6617C1456.35 48.5581 1453.97 47.4881 1453.09 46.2828C1451.37 43.9319 1451.25 44.1732 1451.03 50.5359C1450.85 55.4204 1448.53 56.8317 1447.25 52.832C1446.48 50.3922 1446.29 50.3203 1445.78 52.2616C1445.43 53.5875 1444.49 54.2127 1443.44 53.8117C1442.47 53.4376 1440.55 54.4565 1439.11 56.1139L1436.53 59.0886L1432.76 56.4539C1430.68 55.0049 1428.56 53.1342 1428.05 52.2982C1427.37 51.2075 1425.93 51.9581 1422.93 54.9634C1420.34 57.5641 1418.05 58.8742 1416.88 58.4269C1415.85 58.0309 1415.29 57.2533 1415.63 56.6988C1416.88 54.6721 1413.56 54.1237 1411.48 56.0139C1410.29 57.0851 1408.41 57.9614 1407.29 57.9614C1406.18 57.9614 1405.26 58.8169 1405.26 59.8613C1405.26 60.9057 1404.71 61.4224 1404.05 61.0081C1403.38 60.5937 1402.81 59.0533 1402.79 57.5848C1402.75 55.039 1402.61 55.0744 1399.73 58.3599C1398.06 60.2549 1396.03 61.582 1395.21 61.3078C1394.39 61.0349 1393.13 61.9525 1392.4 63.3467C1391.67 64.7421 1390.45 65.7512 1389.69 65.5903C1388.93 65.4294 1386.3 66.6628 1383.84 68.3323C1379.04 71.5984 1377.28 72.081 1377.28 70.1384C1377.28 69.4096 1376.29 69.5291 1374.85 70.4309C1373.51 71.2681 1372.42 72.5854 1372.42 73.3581C1372.42 74.7401 1369.77 76.2415 1367.32 76.2415C1366.64 76.2415 1366.4 75.3909 1366.8 74.3501C1367.24 73.1997 1367.02 72.7708 1366.24 73.2546C1365.53 73.6921 1364.67 72.9402 1364.31 71.585C1363.54 68.6102 1358.99 68.7089 1355.61 71.7726C1352.65 74.4574 1351.11 74.3355 1348.18 71.1828C1346.47 69.3463 1345.27 68.9148 1344.18 69.7423C1341.7 71.6166 1336.32 71.4875 1334.69 69.5144C1333.18 67.6876 1330.47 66.9418 1331.45 68.6248C1331.75 69.1281 1331.5 70.8306 1330.91 72.4088C1330.19 74.3257 1329.2 75.035 1327.92 74.5451C1326.84 74.1283 1324.29 75.1337 1322 76.8838C1318.72 79.3918 1317.42 79.7392 1314.91 78.7825C1313.22 78.1378 1311.47 77.0288 1311.04 76.3171C1309.45 73.7494 1308.01 75.1009 1308.43 78.7508C1308.73 81.3649 1308.41 82.3045 1307.34 81.8926C1306.5 81.5708 1305.22 81.8962 1304.51 82.6152C1303.57 83.5487 1302.79 83.0283 1301.78 80.8055C1300.51 78.0013 1300.01 77.8112 1296.82 78.9251C1293.94 79.9281 1293.54 80.4898 1294.7 81.8877C1295.49 82.8358 1295.73 84.0106 1295.24 84.4968C1294.76 84.9831 1293.41 84.208 1292.25 82.7736C1290.66 80.8177 1289.62 80.4557 1288.07 81.3246C1286.93 81.962 1284.92 82.1387 1283.6 81.7183C1281.9 81.1772 1281.19 81.5135 1281.19 82.8626C1281.19 83.9131 1280.3 84.7723 1279.21 84.7723C1277.62 84.7723 1277.53 84.4274 1278.71 82.9979C1280.33 81.0419 1279.39 78.5131 1277.14 78.791C1274.03 79.1761 1273 78.5461 1271.49 75.3275C1270.63 73.4837 1269.71 72.5551 1269.45 73.2631C1268.84 74.9364 1262.16 74.4634 1259.9 72.5867C1258.94 71.786 1256.23 70.9525 1253.89 70.7343C1251.55 70.5162 1249.11 70.0129 1248.47 69.6144C1247.82 69.2159 1246.95 69.4559 1246.52 70.1481C1246.09 70.8404 1245.23 71.0914 1244.61 70.705C1242.55 69.4279 1240.8 71.4338 1242.35 73.3033C1243.5 74.6938 1243.27 75.0229 1241.12 75.0229C1239.66 75.0229 1238.81 74.4745 1239.22 73.8042C1239.63 73.1339 1239.48 72.5855 1238.88 72.5855C1238.28 72.5855 1237.16 71.2145 1236.4 69.5388C1235.64 67.8631 1234.18 66.4921 1233.16 66.4921C1230.94 66.4921 1230.68 69.6899 1232.83 70.5601C1234.05 71.0512 1234.05 71.1938 1232.83 71.2706C1232 71.323 1231.31 72.1529 1231.31 73.1132C1231.31 74.9022 1227.2 76.8448 1225.55 75.8394C1224.01 74.9034 1221.98 77.9611 1222.2 80.8981C1222.33 82.72 1221.86 83.4537 1220.81 83.0515C1219.94 82.7164 1218.97 82.8651 1218.65 83.3818C1218.33 83.8985 1214.67 84.2812 1210.51 84.2312C1204.28 84.1569 1202.86 84.5164 1202.4 86.2847C1201.77 88.6916 1198.3 89.285 1198.77 86.905C1198.94 86.0665 1198.16 85.5327 1197.04 85.7191C1195.92 85.9044 1194.66 85.4925 1194.23 84.8051C1193.81 84.1166 1192.09 83.5536 1190.41 83.5536C1187.26 83.5536 1183.87 81.0724 1183.87 78.7654C1183.87 78.0476 1183.14 77.4602 1182.25 77.4602C1181.24 77.4602 1180.63 75.9991 1180.63 73.5678C1180.63 71.4266 1179.99 69.4608 1179.21 69.2C1178.43 68.9392 1177.79 67.9496 1177.79 67.0003C1177.79 66.0497 1176.97 65.2734 1175.97 65.2734C1174.96 65.2734 1174.14 64.7884 1174.14 64.1974C1174.14 62.6338 1169.41 61.6345 1168.56 63.0164C1168.13 63.7087 1166.64 63.4003 1164.91 62.2645C1162.47 60.6668 1161.98 60.6339 1161.98 62.0683C1161.98 64.2912 1158.85 65.6634 1153.33 65.8681C1150.05 65.99 1148.98 65.5525 1149.08 64.1291C1149.15 62.9774 1148.01 62.061 1146.16 61.8063C1144.49 61.5736 1142.41 60.7972 1141.54 60.0818C1140.34 59.0947 1139.79 59.4457 1139.24 61.5296C1138.67 63.7086 1137.84 64.1803 1135.22 63.7952C1132.62 63.4125 1131.63 63.9646 1130.52 66.4251C1126.9 74.4269 1123.96 78.0488 1119.09 80.4813C1114.44 82.8053 1114.54 82.8175 1114.54 79.8976C1114.54 78.022 1113.73 77.4602 1111.02 77.4602C1108.9 77.4602 1107.2 78.2438 1106.75 79.4259C1106.15 80.9858 1105.63 81.0907 1104.24 79.9341C1103.28 79.1335 1101.45 78.8093 1100.17 79.2151C1098.78 79.6562 1097.21 79.1822 1096.27 78.0367C1095.39 76.9825 1092.37 75.0667 1089.55 73.7786C1086.72 72.4904 1084.11 70.6381 1083.73 69.6619C1083.36 68.6858 1081.52 67.7096 1079.64 67.4939C1076.97 67.1868 1076.28 66.5287 1076.49 64.4764C1076.76 61.8453 1075.75 61.1006 1069.24 59.1435C1067.15 58.5134 1065.62 58.6195 1065.12 59.4263C1064.62 60.2354 1063.92 59.9758 1063.22 58.7267C1062.02 56.5782 1057.37 55.9688 1057.37 57.9614C1057.37 58.6317 1056.82 59.1801 1056.15 59.1801C1055.48 59.1801 1054.93 58.0833 1054.93 56.7427C1054.93 53.7204 1050.67 53.3987 1049.55 56.3369C1048.94 57.926 1048.45 58.0479 1047.3 56.8962C1046.15 55.7433 1046.2 55.1962 1047.5 54.3857C1048.83 53.5644 1048.64 53.0587 1046.58 51.9557C1045.15 51.1904 1043.99 49.7597 1043.99 48.7787C1043.99 47.7964 1043.16 46.9933 1042.16 46.9933C1041.16 46.9933 1040.34 47.8159 1040.34 48.8213C1040.34 49.8267 1040.88 50.6493 1041.55 50.6493C1042.22 50.6493 1042.77 51.1465 1042.77 51.7534C1042.77 52.3616 1041.67 52.5711 1040.34 52.2214C1039 51.8704 1037.9 51.2331 1037.9 50.8041C1037.9 49.4502 1030.61 46.7301 1028.82 47.4174C1027.88 47.7794 1025.09 47.0883 1022.61 45.8831C1018.68 43.9648 1017.69 43.8991 1014.78 45.3542C1012.95 46.2694 1010.02 48.4471 1008.28 50.1935C1006.42 52.0532 1004.35 53.0732 1003.26 52.6564C1001.59 52.013 1000.68 54.5625 1001.27 58.2661C1001.35 58.7693 1000.64 59.1801 999.688 59.1801C998.74 59.1801 997.74 59.854 997.466 60.6778C997.098 61.7844 996.155 61.6418 993.855 60.1318C990.412 57.8712 988.095 58.6767 991.295 61.0215C993.135 62.3693 993.064 62.8434 990.454 66.6262C988.886 68.8978 987.5 70.9098 987.377 71.0963C987.253 71.2827 985.707 70.8854 983.942 70.2127C981.879 69.4267 980.732 69.4145 980.732 70.1786C980.732 70.8318 981.52 71.3668 982.485 71.3668C985.041 71.3668 986.031 73.6409 984.356 75.6627C983.104 77.1739 982.566 77.1787 980.456 75.698C978.314 74.1942 977.728 74.2429 975.751 76.088C974.508 77.2482 973.267 79.5393 972.992 81.1796C972.695 82.9503 971.819 83.9862 970.834 83.7279C965.961 82.4495 960.279 82.2009 959.639 83.238C959.212 83.9314 960.154 84.1824 961.914 83.8449C964.351 83.3781 964.919 83.762 964.919 85.8715C964.919 88.0371 964.409 88.3467 961.889 87.713C959.735 87.1719 958.643 87.5155 958.113 88.9012C957.702 89.9736 956.876 90.5488 956.276 90.1771C955.677 89.8066 955.187 90.1576 955.187 90.9571C955.187 92.0076 952.754 92.2379 946.433 91.7846C938.292 91.2008 937.93 91.2751 941.263 92.8472L944.848 94.5363L939.531 94.016C935.84 93.6552 934.602 93.8843 935.483 94.7666C937.254 96.541 935.902 99.3964 933.289 99.3964C931.443 99.3964 931.257 100.023 932.054 103.563L932.991 107.728L927.301 107.441C920.563 107.098 918.921 106.244 917.425 102.303C916.101 98.8163 913.076 97.4965 903.715 96.3253C897.213 95.5112 896.799 95.6136 896.799 98.0376C896.799 101.679 894.543 101.239 893.05 97.3051C892.132 94.8861 891.526 94.429 890.799 95.6075C890.211 96.5605 888.818 96.9066 887.391 96.4521C883.695 95.2773 880.577 96.825 882.344 98.9589C884.708 101.812 882.593 102.225 879.824 99.4512C877.768 97.3917 876.38 97.0285 872.996 97.6646C869.62 98.2996 868.891 98.9126 869.442 100.655C870.343 103.5 868.301 104.751 866.434 102.498C865.297 101.123 864.355 101.04 862.018 102.107C859.537 103.24 858.76 103.078 857.284 101.125C856.102 99.5585 855.505 99.3367 855.48 100.453C855.454 101.566 854.434 101.925 852.407 101.536C850.682 101.206 848.782 101.67 848.001 102.614C846.94 103.896 847.076 104.271 848.602 104.271C849.688 104.271 850.575 104.75 850.575 105.335C850.575 105.92 848.018 106.451 844.894 106.513C841.77 106.577 838.895 107.057 838.507 107.582C837.279 109.246 833.546 108.945 833.546 107.182C833.546 106.24 832.333 105.49 830.809 105.489C828.325 105.487 828.091 106.022 828.285 111.277C828.602 119.914 824.118 124.853 819.361 121.107C818.491 120.422 817.646 120.486 817.16 121.273C816.727 121.976 817.044 122.551 817.864 122.551C818.683 122.551 819.065 122.841 818.711 123.195C817.685 124.225 811.97 121.653 809.266 118.944C805.736 115.407 803.701 115.849 801.431 120.642C799.398 124.933 799.674 124.83 789.424 125.082C788.239 125.112 787.564 125.614 787.924 126.196C788.284 126.78 788.12 127.542 787.559 127.889C785.999 128.854 782.192 123.778 782.964 121.764C783.338 120.787 783.192 120.267 782.639 120.611C781.004 121.623 769.075 117.344 769.075 115.746C769.075 114.941 768.209 113.949 767.151 113.542C764.176 112.397 763.783 112.646 765.426 114.63C766.472 115.892 766.518 116.458 765.575 116.458C764.824 116.458 764.19 117.418 764.167 118.591C764.143 119.763 763.334 122.094 762.368 123.77L760.613 126.817L759.844 124.103C759.106 121.498 755.763 120.858 753.699 122.927C753.235 123.39 751.716 123.778 750.322 123.788C748.928 123.798 746.42 124.588 744.747 125.543C737.911 129.448 733.809 130.857 731.238 130.183C729.075 129.616 728.679 129.88 729.293 131.481C730.133 133.673 725.452 139.613 722.884 139.613C721.865 139.613 721.629 140.639 722.159 142.757C722.835 145.455 722.617 145.795 720.617 145.16C718.896 144.613 718.103 145.126 717.581 147.127C716.912 149.691 716.754 149.725 714.597 147.771C711.494 144.957 709.379 145.204 705.998 148.774C704.423 150.438 702.567 151.799 701.875 151.799C701.182 151.799 699.994 152.653 699.232 153.696C698.055 155.308 696.083 156.126 692.268 156.58C691.84 156.633 691.076 158.182 690.574 160.026L689.659 163.377L688.785 160.33C687.96 157.457 687.854 157.422 686.92 159.721C685.045 164.33 681.537 164.597 673.847 160.714C670.552 159.051 670.501 159.075 672.022 161.575C673.387 163.818 673.239 164.431 670.85 166.393C669.345 167.63 668.113 169.24 668.113 169.97C668.113 170.701 667.565 171.298 666.896 171.298C666.227 171.298 665.68 170.476 665.68 169.47C665.68 168.465 666.227 167.642 666.896 167.642C667.565 167.642 668.092 166.682 668.067 165.51C668.035 163.987 666.831 164.771 663.864 168.246C660.525 172.156 659.406 172.812 658.177 171.581C656.947 170.349 655.889 170.902 652.792 174.389C649.662 177.913 648.358 178.584 645.858 177.955C643.949 177.475 642.494 176.041 642.028 174.183C640.904 169.696 631.634 160.775 627.06 159.779C623.887 159.088 623.242 159.266 623.784 160.686C624.548 162.679 621.145 164.519 620.031 162.714C618.685 160.531 617.218 161.542 616.415 165.205C615.416 169.76 613.944 169.871 612.355 165.51C611.683 163.666 611.09 162.843 611.037 163.682C610.861 166.471 608.508 165.251 608.508 162.37C608.508 160.812 607.052 158.207 605.273 156.582C602.823 154.345 602.222 154.145 602.801 155.76C603.222 156.933 603.036 157.893 602.389 157.893C601.74 157.893 601.193 157.207 601.171 156.37C601.15 155.531 600.327 153.779 599.341 152.475C597.952 150.633 597.226 150.429 596.096 151.561C594.379 153.281 591.066 153.442 588.116 151.948C581.965 148.832 576.407 146.86 577.794 148.286C579.857 150.408 579.716 152.215 577.552 151.383C576.405 150.942 576.013 151.29 576.43 152.38C576.792 153.323 575.719 154.944 573.975 156.088C570.469 158.39 563.344 157.809 556.408 154.654C552.36 152.811 549.275 153.425 552.51 155.429C555.209 157.1 551.793 160.458 548.157 159.709C546.561 159.381 543.842 158.815 542.116 158.455C539.394 157.884 539.083 158.127 539.766 160.283C540.199 161.649 540.225 162.768 539.823 162.768C538.019 162.768 530.981 159.261 529.197 157.474C528.112 156.387 524.725 155.289 521.671 155.034C516.909 154.635 516.006 154.928 515.321 157.089C513.545 162.696 508.57 164.804 503.428 162.129C500.748 160.735 499.52 160.636 498.229 161.71C497.3 162.482 496.187 162.762 495.755 162.329C495.323 161.897 493.949 162.47 492.699 163.604C490.773 165.35 489.821 165.443 486.432 164.215C481.344 162.372 480.785 162.397 480.785 164.468C480.785 168.413 467.707 162.262 458.384 153.932C457.072 152.76 455.255 151.799 454.349 151.799C453.442 151.799 452.862 150.896 453.058 149.794C453.611 146.685 451.1 146.585 449.753 149.662C448.697 152.071 447.655 152.409 441.275 152.409C435.413 152.409 433.923 152.809 433.597 154.471C433.28 156.092 431.872 156.523 427.027 156.485C423.636 156.46 420.473 157.067 419.999 157.836C419.525 158.605 418.014 159.319 416.643 159.422C415.154 159.534 414.391 160.241 414.75 161.178C415.08 162.041 414.473 163.084 413.4 163.498C410.798 164.497 410.911 166.404 413.578 166.5C416.83 166.619 410.472 169.012 405.367 169.591C403.025 169.857 399.193 170.315 396.852 170.609C394.51 170.902 391.654 171.178 390.503 171.22C389.159 171.27 388.663 171.95 389.113 173.126C390.071 175.628 388.347 175.433 386.442 172.824C384.986 170.828 384.738 170.867 382.5 173.452C381.02 175.163 379.366 175.921 378.143 175.452C377.058 175.034 376.173 175.299 376.173 176.043C376.173 176.785 375.293 177.392 374.218 177.392C372.986 177.392 372.52 178.063 372.959 179.208C373.436 180.452 372.615 181.279 370.352 181.84C368.536 182.288 366.137 183.696 365.023 184.968C362.639 187.686 351.673 188.309 348.764 185.891C347.477 184.82 346.979 184.794 346.979 185.799C346.979 186.566 345.474 187.836 343.634 188.622C341.793 189.407 339.351 190.833 338.205 191.79C337.059 192.747 335.334 193.227 334.372 192.857C333.307 192.448 332.382 193.104 332.008 194.531C331.671 195.822 330.387 197.24 329.152 197.683C327.917 198.125 326.14 199.088 325.201 199.822C323.164 201.414 317.785 201.708 317.785 200.226C317.785 199.653 317.215 199.536 316.518 199.968C315.823 200.399 315.585 201.802 315.992 203.085C316.544 204.828 315.939 205.721 313.609 206.608C311.891 207.263 310.486 208.361 310.486 209.047C310.486 209.734 309.529 211.304 308.357 212.536C307.186 213.768 305.681 215.692 305.012 216.814C304.129 218.293 301.496 219.016 295.401 219.452C290.785 219.782 286.293 220.646 285.419 221.373C284.546 222.099 283.236 222.324 282.509 221.873C281.781 221.423 280.518 221.609 279.703 222.287C278.887 222.965 276.037 223.698 273.37 223.915C269.54 224.228 268.595 224.759 268.877 226.443C269.073 227.616 268.63 228.576 267.893 228.576C267.155 228.576 266.845 228.102 267.202 227.522C267.56 226.942 264.746 226.102 260.95 225.655C254.452 224.89 253.841 225.049 250.524 228.373L247 231.903L249.191 236.028C250.396 238.298 251.259 240.597 251.108 241.141C250.719 242.541 262.105 252.95 264.028 252.95C264.905 252.95 265.294 253.482 264.892 254.133C264.491 254.783 265.029 256.993 266.087 259.043C267.145 261.093 267.706 263.265 267.334 263.869C266.96 264.474 267.188 265.297 267.838 265.701C268.489 266.104 268.755 267.129 268.43 267.98C268.077 268.899 269.537 270.195 272.023 271.173C274.665 272.211 275.976 273.423 275.579 274.462C274.838 276.396 276.616 276.646 278.402 274.857C279.729 273.527 288.149 272.818 289.269 273.941C289.637 274.309 290.005 275.906 290.088 277.49C290.283 281.229 291.992 283.417 294.72 283.417C295.921 283.417 297.101 284.01 297.342 284.736C297.837 286.224 318.027 288.201 324.875 287.433C331.142 286.73 337.247 288.062 337.247 290.132C337.247 291.083 338.205 292.373 339.376 292.998C342.872 294.864 353.692 295.4 359.762 294.008C363.872 293.066 367.266 293.092 372.078 294.103C376.556 295.044 379.741 295.11 381.852 294.307C383.813 293.56 385.499 293.543 386.363 294.26C387.12 294.89 391.159 295.262 395.337 295.085C400.665 294.861 402.934 295.209 402.934 296.247C402.934 298.536 411.702 299.69 429.789 299.783C442.618 299.849 447.235 300.323 450.468 301.905C456.79 304.997 468.448 307.228 475.919 306.776C493.211 305.728 502.68 306.758 502.68 309.684C502.68 310.575 503.364 311.697 504.201 312.179C505.036 312.661 505.314 312.605 504.816 312.056C504.319 311.506 504.927 310.343 506.166 309.473C507.851 308.291 509.537 308.201 512.848 309.117C516.406 310.101 517.277 310.929 517.277 313.331C517.277 316.654 518.047 316.894 522.839 315.069C525.63 314.005 526.399 314.21 527.946 316.423C529.531 318.69 530.529 318.928 535.608 318.253C540.4 317.616 541.66 317.855 542.626 319.583C543.588 321.305 544.137 321.411 545.637 320.165C546.669 319.305 547.771 319.126 548.158 319.754C548.536 320.367 550.317 320.587 552.115 320.243C554.571 319.772 555.224 320.04 554.743 321.32C554.225 322.695 556.407 323.083 566.053 323.333C576.276 323.598 578.728 323.265 582.995 321.036C586.994 318.948 588.514 318.696 590.644 319.769C593.669 321.292 601.39 321.676 611.3 320.797C613.839 320.572 616.198 320.845 616.543 321.404C616.888 321.962 619.19 322.119 621.658 321.753C629.309 320.614 637.702 320.462 637.702 321.461C637.702 321.985 638.523 322.414 639.527 322.414C640.531 322.414 641.352 322.963 641.352 323.633C641.352 324.303 642.109 324.852 643.034 324.852C643.96 324.852 644.983 325.867 645.306 327.107C645.835 329.134 646.62 329.257 653.05 328.325C662.726 326.922 688.186 328.968 686.905 331.046C686.527 331.659 689.015 331.905 692.582 331.608C696.076 331.317 699.799 331.529 700.857 332.077C701.915 332.627 703.856 332.685 705.171 332.208C706.727 331.642 708.353 332.077 709.829 333.456C712.917 336.338 718.935 337.062 724.068 335.168C729.987 332.985 735.987 332.065 736.451 333.269C736.665 333.825 738.073 334.662 739.577 335.131C741.595 335.76 742.314 335.493 742.314 334.117C742.314 331.602 747.035 329.094 748.675 330.737C749.354 331.417 750.664 331.684 751.586 331.329C752.508 330.974 753.262 331.173 753.262 331.77C753.262 333.456 776.17 331.227 778.958 329.271C782.45 326.82 788.904 329.2 787.237 332.323C786.227 334.214 786.607 334.376 790.664 333.792C793.175 333.43 796.711 332.093 798.525 330.821C802.323 328.155 805.568 327.807 805.568 330.065C805.568 332.601 809.915 335.678 811.804 334.479C814.096 333.025 818.949 333.108 818.949 334.601C818.949 335.271 820.016 335.82 821.321 335.82C822.626 335.82 824.157 336.65 824.723 337.664C825.578 339.193 826.83 339.301 832.091 338.302C835.577 337.64 839.963 335.962 841.838 334.573C844.557 332.559 845.879 332.288 848.365 333.235C850.508 334.053 851.906 333.999 852.838 333.066C853.833 332.069 854.923 332.375 856.946 334.218C858.46 335.599 860.404 336.472 861.265 336.157C862.126 335.843 864.863 336.553 867.347 337.735C869.831 338.918 873.703 339.997 875.954 340.135C878.203 340.273 880.419 340.993 880.876 341.736C881.42 342.618 885.151 342.905 891.625 342.564C899.209 342.165 901.402 342.399 900.957 343.562C900.143 345.687 908.895 349.781 910.601 348.072C911.306 347.365 911.48 346.788 910.989 346.788C910.496 346.788 910.68 345.691 911.396 344.35C912.113 343.01 913.245 341.913 913.914 341.913C914.711 341.913 914.696 342.727 913.872 344.27C913.18 345.567 912.637 347.075 912.666 347.621C912.697 348.169 913.804 346.559 915.128 344.046C916.453 341.532 918.377 339.476 919.404 339.476C920.431 339.476 920.933 340.024 920.519 340.694C920.106 341.365 920.32 341.913 920.994 341.913C921.669 341.913 923.682 339.994 925.468 337.648C929.183 332.768 930.616 332.448 934.116 335.716C937.047 338.451 940.111 339.091 943.994 337.781C945.587 337.243 947.431 337.371 948.283 338.079C949.104 338.762 951.404 339.12 953.394 338.875C957.642 338.351 964.919 340.62 964.919 342.47C964.919 344.506 972.167 347.183 978.859 347.615C992.152 348.476 992.305 348.512 991.93 350.749C991.511 353.258 996.393 353.765 998.702 351.452C999.763 350.389 1000.89 350.368 1003.08 351.37C1004.7 352.111 1007.18 352.416 1008.59 352.048C1009.99 351.68 1011.14 351.927 1011.14 352.597C1011.14 354.573 1016.71 355.057 1019.12 353.289C1021.9 351.249 1025.09 351.208 1027.17 353.186C1028.06 354.023 1032.34 354.871 1036.68 355.071C1041.03 355.27 1045.82 356.24 1047.32 357.228C1048.97 358.309 1051.27 358.719 1053.1 358.258C1055.45 357.668 1056.15 357.963 1056.15 359.534C1056.15 360.954 1056.82 361.362 1058.36 360.872C1059.58 360.486 1062.73 360.959 1065.36 361.923C1067.99 362.888 1069.71 363.716 1069.18 363.764C1068.65 363.81 1069.34 365.05 1070.7 366.517C1072.06 367.983 1073.18 369.823 1073.18 370.606C1073.18 372.507 1089.88 372.169 1093.46 370.195C1094.92 369.393 1097.38 368.769 1098.94 368.809C1100.49 368.851 1102.59 368.761 1103.59 368.612C1107.76 367.992 1109.93 368.742 1109.19 370.552C1108.79 371.557 1108.18 373.065 1107.84 373.903C1107.05 375.83 1113.29 376.348 1115.48 374.537C1116.65 373.565 1116.84 373.739 1116.26 375.255C1115.26 377.857 1116.42 377.641 1123.05 373.986ZM2217.74 348.89C2217.89 347.433 2219.56 347.715 2220.08 349.286C2220.35 350.09 2219.91 350.529 2219.11 350.261C2218.3 349.993 2217.69 349.376 2217.74 348.89ZM1961.16 345.569C1961.16 344.899 1960.58 344.35 1959.88 344.35C1959.17 344.35 1958.93 344.899 1959.34 345.569C1959.75 346.239 1960.33 346.788 1960.63 346.788C1960.92 346.788 1961.16 346.239 1961.16 345.569ZM907.747 344.35C907.747 343.68 908.294 343.132 908.963 343.132C909.632 343.132 910.18 343.68 910.18 344.35C910.18 345.021 909.632 345.569 908.963 345.569C908.294 345.569 907.747 345.021 907.747 344.35ZM902.881 343.741C902.881 342.736 903.412 341.913 904.06 341.913C904.707 341.913 904.923 342.736 904.538 343.741C904.153 344.747 903.622 345.569 903.359 345.569C903.097 345.569 902.881 344.747 902.881 343.741ZM1692.94 341.913C1693.36 341.243 1694.21 340.694 1694.84 340.694C1695.47 340.694 1695.99 341.243 1695.99 341.913C1695.99 342.583 1695.13 343.132 1694.09 343.132C1693.05 343.132 1692.53 342.583 1692.94 341.913ZM2372.54 281.366C2371.66 281.013 2370.61 281.057 2370.21 281.462C2369.81 281.866 2370.52 282.154 2371.81 282.102C2373.22 282.043 2373.51 281.754 2372.54 281.366ZM2384.45 255.967C2382.1 253.129 2383.78 252.595 2386.29 255.38C2387.51 256.724 2387.94 257.824 2387.25 257.824C2386.56 257.824 2385.3 256.988 2384.45 255.967ZM318.063 205.649C317.798 204.853 318.449 204.203 319.508 204.203C320.567 204.203 321.434 205.07 321.434 206.132C321.434 208.284 318.815 207.91 318.063 205.649ZM485.65 169.542C485.65 169.246 486.198 168.666 486.867 168.252C487.536 167.837 488.083 168.08 488.083 168.789C488.083 169.498 487.536 170.08 486.867 170.08C486.198 170.08 485.65 169.838 485.65 169.542ZM685.537 159.842C685.909 158.868 685.489 157.469 684.604 156.733C683.403 155.733 682.822 155.843 682.316 157.163C681.943 158.137 682.363 159.536 683.249 160.272C684.449 161.271 685.031 161.161 685.537 159.842ZM446.725 149.362C446.725 148.692 446.177 148.143 445.508 148.143C444.839 148.143 444.292 148.692 444.292 149.362C444.292 150.032 444.839 150.581 445.508 150.581C446.177 150.581 446.725 150.032 446.725 149.362ZM2356.5 126.207C2356.5 125.537 2357.05 124.989 2357.72 124.989C2358.39 124.989 2358.93 125.537 2358.93 126.207C2358.93 126.878 2358.39 127.426 2357.72 127.426C2357.05 127.426 2356.5 126.878 2356.5 126.207ZM770.479 122.005C770.212 120.616 770.65 120.03 771.696 120.38C772.597 120.679 773.521 121.903 773.754 123.097C774.021 124.487 773.583 125.073 772.537 124.723C771.636 124.423 770.712 123.2 770.479 122.005ZM844.493 113.483C844.493 112.197 846.828 111.656 847.522 112.782C847.942 113.464 847.432 114.021 846.39 114.021C845.347 114.021 844.493 113.779 844.493 113.483ZM848.143 109.755C848.143 108.705 849.24 107.927 850.724 107.927C852.882 107.927 853.057 108.228 851.792 109.755C850.959 110.761 849.797 111.583 849.211 111.583C848.623 111.583 848.143 110.761 848.143 109.755ZM934.508 103.662C934.508 102.656 934.997 101.834 935.594 101.834C936.192 101.834 936.996 102.656 937.381 103.662C937.807 104.776 937.383 105.49 936.295 105.49C935.312 105.49 934.508 104.667 934.508 103.662ZM1180.07 80.7908C1181.28 79.5965 1181.41 79.7367 1180.75 81.4734C1180.3 82.675 1179.62 83.3513 1179.24 82.976C1178.87 82.6018 1179.24 81.6183 1180.07 80.7908ZM1128.3 77.2311C1128.69 76.2598 1128.98 76.5486 1129.04 77.9684C1129.09 79.2529 1128.8 79.9719 1128.4 79.5673C1128 79.1627 1127.95 78.111 1128.3 77.2311Z" fill="white"/>
<path fill-rule="evenodd" clip-rule="evenodd" d="M876.053 3362.99C879.063 3361.33 882.731 3358.85 884.202 3357.47C886.013 3355.78 887.906 3355.18 890.065 3355.59C892.364 3356.03 893.653 3355.53 894.688 3353.81C895.478 3352.5 898.704 3350.1 901.858 3348.48C905.012 3346.86 908.178 3344.44 908.895 3343.1C909.883 3341.25 911.442 3340.66 915.337 3340.66C919.191 3340.66 920.862 3340.04 922.024 3338.18C922.875 3336.81 924.093 3336.02 924.729 3336.41C926.746 3337.66 934.441 3335.61 934.441 3333.82C934.441 3332.89 935.182 3332.13 936.088 3332.13C936.994 3332.13 939.221 3330.75 941.037 3329.07C942.854 3327.38 944.85 3326.31 945.473 3326.7C946.095 3327.09 946.605 3326.89 946.605 3326.26C946.605 3325.64 948.385 3324.71 950.558 3324.19C952.732 3323.68 954.786 3323.19 955.12 3323.11C955.454 3323.02 956.425 3322.51 957.278 3321.97C958.131 3321.43 960.338 3321.31 962.185 3321.72C965.108 3322.37 967.397 3323.88 974.276 3329.72C975.126 3330.44 978.169 3330.72 981.201 3330.35C984.175 3330 986.934 3330.23 987.332 3330.88C987.995 3331.95 990.61 3331.11 999.849 3326.87C1001.37 3326.17 1005.75 3325.5 1009.58 3325.38C1018.42 3325.1 1017.98 3325.25 1018.73 3322.38C1019.11 3320.9 1020.48 3319.87 1022.21 3319.76C1027.65 3319.41 1032.37 3320.19 1033.3 3321.59C1033.95 3322.57 1034.61 3322.35 1035.5 3320.83C1036.2 3319.65 1037.31 3319.01 1037.96 3319.41C1038.62 3319.82 1039.82 3319.69 1040.63 3319.12C1043.23 3317.27 1051.22 3318.98 1051.22 3321.38C1051.22 3322.07 1052.11 3322.3 1053.2 3321.88C1054.28 3321.46 1055.92 3321.74 1056.83 3322.5C1057.74 3323.25 1059.83 3323.54 1061.47 3323.12C1063.67 3322.57 1064.92 3323.04 1066.23 3324.92C1067.72 3327.05 1068.44 3327.24 1070.58 3326.09C1072.51 3325.05 1073.07 3325.07 1072.83 3326.14C1072.65 3326.92 1073.28 3327.84 1074.22 3328.18C1075.42 3328.62 1075.7 3328.2 1075.15 3326.77C1074.05 3323.9 1079.22 3321.96 1088.93 3321.59C1104.12 3321.02 1114.62 3319.95 1116.89 3318.73C1120.59 3316.75 1123.59 3317.31 1126.63 3320.55C1129.68 3323.8 1132.84 3324.85 1130.28 3321.77C1129.02 3320.25 1129.18 3319.95 1131.22 3319.95C1132.57 3319.95 1133.98 3319.15 1134.35 3318.18C1134.83 3316.92 1136.63 3316.51 1140.67 3316.75C1145.37 3317.02 1146.82 3317.73 1149.35 3320.97L1152.39 3324.86L1155.81 3321.18C1157.7 3319.16 1160.05 3317.51 1161.05 3317.51C1162.05 3317.51 1163.18 3316.69 1163.57 3315.68C1163.95 3314.67 1165.43 3313.85 1166.85 3313.85C1168.27 3313.85 1170.38 3312.67 1171.55 3311.23C1173.38 3308.96 1174.97 3308.6 1183.45 3308.52C1189.99 3308.46 1193.89 3308.97 1195.21 3310.07C1196.71 3311.32 1197.59 3311.38 1198.86 3310.32C1200.06 3309.33 1201.49 3309.29 1203.81 3310.17C1206.39 3311.15 1206.91 3311.95 1206.27 3313.96C1205.63 3316.01 1205.91 3316.42 1207.71 3316.02C1208.95 3315.76 1209.82 3314.88 1209.66 3314.08C1209.49 3313.29 1209.9 3312.63 1210.57 3312.63C1211.24 3312.63 1211.78 3313.12 1211.78 3313.71C1211.78 3315.17 1217.76 3316.23 1218.58 3314.91C1219.61 3313.22 1231.54 3313.7 1235.11 3315.57C1237.94 3317.05 1238.47 3317.03 1239.06 3315.48C1240.01 3313 1244.69 3313.92 1246.33 3316.9C1247.07 3318.24 1247.79 3319.55 1247.94 3319.81C1248.09 3320.07 1250.49 3320.42 1253.28 3320.57C1256.46 3320.75 1258.76 3321.6 1259.46 3322.84C1260.83 3325.3 1264.91 3325.37 1270.48 3323.04C1274.37 3321.41 1274.91 3321.45 1276.72 3323.44C1277.8 3324.64 1278.7 3326.13 1278.72 3326.74C1278.73 3327.36 1280.65 3328.81 1282.97 3329.97C1286.57 3331.76 1287.2 3331.81 1287.2 3330.28C1287.2 3328.27 1288.23 3328.02 1294.68 3328.4C1297.11 3328.54 1299.47 3328.07 1299.92 3327.35C1301.38 3324.98 1305.03 3325.98 1306.47 3329.15C1307.25 3330.87 1308.43 3331.94 1309.09 3331.53C1309.77 3331.1 1309.98 3331.6 1309.56 3332.68C1308.66 3335.03 1308.93 3335.02 1314.66 3332.63C1318.91 3330.85 1319.42 3330.85 1320.72 3332.63C1322.79 3335.47 1325.01 3335.03 1330.16 3330.78L1334.74 3327L1336.96 3329.57C1339.57 3332.58 1341.43 3332.83 1342.82 3330.35C1343.37 3329.36 1345.72 3328.41 1348.05 3328.21C1351.93 3327.9 1352.26 3328.13 1352.08 3331.04L1351.87 3334.2L1356.29 3331.95C1358.72 3330.71 1361.41 3329.69 1362.27 3329.69C1363.13 3329.69 1363.84 3328.73 1363.84 3327.56C1363.84 3325.85 1365.04 3325.38 1369.92 3325.17C1373.26 3325.03 1376 3325.44 1376 3326.09C1376 3326.73 1376.53 3327.26 1377.18 3327.26C1377.83 3327.26 1378.04 3326.43 1377.66 3325.43C1377.2 3324.24 1377.69 3323.6 1379.04 3323.6C1380.4 3323.6 1380.88 3324.24 1380.43 3325.43C1379.59 3327.61 1380.91 3327.74 1384.99 3325.88C1386.65 3325.12 1389 3324.92 1390.22 3325.43C1393.72 3326.91 1397.9 3327.19 1397.9 3325.96C1397.9 3323.81 1400.16 3324.82 1400.96 3327.32C1401.4 3328.73 1401.05 3330.66 1400.13 3331.76C1398.71 3333.48 1398.87 3333.59 1401.55 3332.75C1403.22 3332.23 1404.86 3331.4 1405.19 3330.91C1406.75 3328.64 1411.33 3328.46 1414.51 3330.54C1418.92 3333.44 1423.65 3333.46 1425.7 3330.61C1426.65 3329.28 1428.13 3328.61 1429.22 3329.03C1430.25 3329.43 1432.11 3328.83 1433.35 3327.71C1435.51 3325.75 1436.25 3326.4 1435.79 3329.88C1435.61 3331.25 1439.14 3332.09 1439.9 3330.86C1441.06 3328.97 1442.57 3329.52 1443.24 3332.07C1443.76 3334.06 1444.89 3334.42 1450.37 3334.32C1453.96 3334.26 1458.19 3333.73 1459.78 3333.14C1462.3 3332.21 1462.58 3332.39 1462.02 3334.54C1460.97 3338.56 1463.03 3337.4 1468.76 3330.73C1473.37 3325.37 1474.6 3324.57 1477.27 3325.24C1479.65 3325.84 1480.24 3326.61 1479.75 3328.47C1478.87 3331.84 1483.41 3331.77 1486.81 3328.36C1489.7 3325.47 1495.45 3323.46 1497.39 3324.66C1498.1 3325.1 1498.59 3326.55 1498.47 3327.88C1498.3 3329.81 1498.87 3330.22 1501.29 3329.88C1502.96 3329.65 1505.04 3328.88 1505.9 3328.17C1507.87 3326.55 1520.91 3329.41 1522.35 3331.78C1522.89 3332.67 1523.85 3333.08 1524.48 3332.69C1525.11 3332.31 1525.62 3332.57 1525.62 3333.28C1525.62 3335.54 1529.27 3334.67 1532.53 3331.64C1534.94 3329.4 1537.08 3328.7 1541.57 3328.66C1544.81 3328.64 1547.78 3329.13 1548.17 3329.77C1548.61 3330.49 1549.7 3330.48 1551.08 3329.74C1552.42 3329.02 1554.75 3328.98 1557 3329.62C1559.04 3330.21 1561.02 3330.39 1561.39 3330.01C1561.76 3329.64 1565.61 3329.14 1569.94 3328.9C1574.28 3328.65 1579.25 3327.91 1580.99 3327.25C1585.09 3325.69 1590.09 3325.69 1590.09 3327.26C1590.09 3327.93 1590.91 3328.48 1591.91 3328.48C1592.92 3328.48 1593.74 3327.93 1593.74 3327.26C1593.74 3326.59 1594.38 3326.04 1595.17 3326.04C1595.95 3326.04 1595.27 3327.5 1593.65 3329.28C1591.03 3332.15 1590.98 3332.41 1593.13 3331.58C1596.01 3330.46 1597.68 3330.07 1603.77 3329.1C1606.62 3328.64 1608.34 3327.7 1608.34 3326.59C1608.34 3324.19 1610.77 3324.41 1614.3 3327.12C1616.47 3328.8 1617.03 3330.11 1616.47 3332.23C1616 3334.04 1616.45 3335.89 1617.69 3337.27C1620.01 3339.83 1621.72 3340.08 1621.72 3337.85C1621.72 3336.12 1629.1 3328.48 1630.78 3328.48C1631.36 3328.48 1633.73 3327.02 1636.06 3325.24C1639.48 3322.63 1640.72 3322.27 1642.46 3323.36C1644.57 3324.68 1647.21 3324.56 1652.41 3322.9C1654.36 3322.28 1654.76 3322.53 1654.2 3324.01C1653.72 3325.27 1654.01 3325.7 1655.07 3325.3C1655.96 3324.96 1657.03 3325.59 1657.46 3326.71C1658.02 3328.17 1659.08 3328.52 1661.26 3327.97C1664.52 3327.15 1665.19 3328.31 1662.83 3330.67C1660.36 3333.14 1663.68 3332.35 1667.11 3329.65C1669.74 3327.58 1670.66 3327.41 1672.65 3328.66C1674.56 3329.85 1675.43 3329.83 1676.97 3328.56C1678.28 3327.46 1678.89 3327.39 1678.89 3328.35C1678.89 3329.21 1680 3329.46 1681.8 3329.01C1683.4 3328.61 1685.07 3328.87 1685.52 3329.6C1685.96 3330.32 1685.75 3330.91 1685.04 3330.91C1684.33 3330.91 1683.75 3331.47 1683.75 3332.14C1683.75 3332.87 1684.8 3332.75 1686.35 3331.84C1688.09 3330.81 1689.09 3330.73 1689.41 3331.59C1689.92 3332.98 1705.78 3332.95 1708.02 3331.56C1708.72 3331.13 1709.3 3331.36 1709.3 3332.09C1709.3 3332.87 1710.47 3332.64 1712.19 3331.51C1716.04 3328.98 1725.72 3327.99 1732.11 3329.46C1735.36 3330.21 1737.28 3330.22 1737.28 3329.49C1737.28 3328.85 1737.83 3328.68 1738.51 3329.1C1739.19 3329.52 1739.51 3330.26 1739.21 3330.74C1738.49 3331.9 1744.62 3331.65 1747.34 3330.4C1748.53 3329.86 1751.65 3329.96 1754.28 3330.63C1757.72 3331.5 1759.22 3331.46 1759.63 3330.46C1760.02 3329.54 1760.66 3329.68 1761.6 3330.91C1762.65 3332.28 1763.16 3332.36 1763.62 3331.23C1763.95 3330.4 1765.19 3328.54 1766.37 3327.08C1768.27 3324.72 1768.93 3324.59 1772.52 3325.85C1777.35 3327.53 1800.63 3324.56 1805.05 3321.69C1808.61 3319.38 1811.04 3319.48 1812 3321.98C1812.59 3323.53 1813.11 3323.67 1814.19 3322.59C1816.18 3320.59 1820.62 3320.81 1822.43 3322.99C1823.26 3324 1824.99 3324.82 1826.27 3324.82C1827.56 3324.82 1830.09 3325.87 1831.9 3327.14C1836.5 3330.39 1843.61 3331.45 1845.83 3329.23C1846.79 3328.27 1848.23 3327.89 1849.04 3328.38C1849.84 3328.88 1855.72 3329.16 1862.09 3329.01C1871.08 3328.79 1873.84 3329.11 1874.34 3330.43C1874.7 3331.37 1876 3332.13 1877.22 3332.13C1878.45 3332.13 1879.79 3332.68 1880.21 3333.35C1880.62 3334.02 1883.31 3334.57 1886.18 3334.57C1889.05 3334.57 1893.13 3335.17 1895.24 3335.91C1897.36 3336.65 1900.04 3336.84 1901.2 3336.34C1904.1 3335.07 1907.62 3335.62 1911.15 3337.89C1914.85 3340.27 1933.92 3341.31 1936.37 3339.27C1937.63 3338.22 1938.56 3338.37 1940.23 3339.89C1943.6 3342.93 1946.28 3342.38 1946.72 3338.54C1947.14 3334.93 1951.37 3332.9 1951.37 3336.31C1951.37 3338.7 1954.23 3338.81 1956.15 3336.49C1957.35 3335.05 1958.12 3335.02 1960.86 3336.34C1971.4 3341.44 1973.22 3342.06 1975.46 3341.35C1976.82 3340.91 1978.3 3341.18 1978.77 3341.93C1979.23 3342.68 1980.83 3342.99 1982.32 3342.61C1984.31 3342.12 1985.43 3342.66 1986.49 3344.65C1987.62 3346.75 1989.22 3347.45 1993.57 3347.73C1996.67 3347.93 2000.17 3348.62 2001.35 3349.26C2004.97 3351.19 2007.24 3350.56 2008.03 3347.41C2009.08 3343.22 2013.3 3342.09 2015.9 3345.31C2017.64 3347.47 2018.26 3347.6 2020.23 3346.25C2022.77 3344.51 2030.43 3344.13 2030.43 3345.75C2030.43 3347.05 2035.38 3344.3 2037.36 3341.88C2038.19 3340.88 2038.89 3339.08 2038.91 3337.89C2038.93 3336.7 2040.24 3335.23 2041.82 3334.63C2043.4 3334.03 2045.03 3332.67 2045.43 3331.62C2045.84 3330.56 2047.35 3329.69 2048.78 3329.69C2050.8 3329.69 2051.25 3329.14 2050.76 3327.26C2050.37 3325.75 2050.72 3324.82 2051.7 3324.82C2052.57 3324.82 2053.62 3322.95 2054.05 3320.67C2054.48 3318.39 2055.68 3316.2 2056.72 3315.8C2059.27 3314.82 2059.37 3314.84 2059.96 3316.59C2060.24 3317.43 2060.22 3316.54 2059.92 3314.61C2059.53 3312.18 2059.79 3311.37 2060.77 3311.98C2061.54 3312.45 2062.89 3312.24 2063.78 3311.5C2064.67 3310.76 2066.35 3310.52 2067.52 3310.97C2069.24 3311.63 2069.49 3311.3 2068.84 3309.26C2068.01 3306.64 2069.86 3304.39 2071.14 3306.47C2071.54 3307.12 2072.69 3307.34 2073.69 3306.95C2075.02 3306.44 2075.15 3305.84 2074.2 3304.69C2073.18 3303.46 2073.76 3303.18 2076.91 3303.43C2079.11 3303.6 2082 3303.35 2083.33 3302.87C2085.63 3302.05 2085.61 3301.97 2082.96 3301.13C2079.14 3299.91 2080.14 3297.98 2086.16 3294.95C2090.09 3292.96 2090.91 3292.06 2089.79 3290.93C2088.66 3289.81 2089.18 3289.48 2092.09 3289.48C2094.74 3289.48 2096.42 3288.59 2097.82 3286.45C2098.91 3284.78 2102.52 3282.17 2105.83 3280.66C2109.93 3278.78 2112.23 3276.86 2113.01 3274.65C2113.74 3272.62 2115.24 3271.24 2117.01 3270.99C2119.08 3270.7 2120 3269.61 2120.45 3266.93C2121.19 3262.5 2126.16 3256.57 2129.14 3256.57C2130.53 3256.57 2131.08 3255.94 2130.65 3254.84C2130.27 3253.84 2131.09 3252.52 2132.58 3251.72C2134.43 3250.73 2134.94 3249.63 2134.39 3247.88C2133.63 3245.5 2133.72 3245.49 2137.48 3247.43C2139.61 3248.54 2141.54 3249.26 2141.76 3249.03C2141.99 3248.81 2142.51 3245.65 2142.92 3242.03C2143.5 3236.93 2144.42 3234.79 2146.94 3232.62C2150.12 3229.88 2150.22 3229.87 2151.47 3232.2C2152.72 3234.54 2152.76 3234.55 2154.2 3232.25C2155 3230.96 2157.61 3228.98 2160.01 3227.84C2162.94 3226.44 2164.14 3225.18 2163.68 3223.97C2163.11 3222.47 2163.96 3222.31 2168.78 3223.01C2174.14 3223.79 2174.39 3223.72 2172.15 3222C2169.88 3220.28 2169.84 3219.92 2171.58 3216.73C2172.87 3214.36 2174.74 3213.08 2177.66 3212.56C2179.98 3212.14 2181.4 3211.73 2180.82 3211.64C2180.23 3211.55 2180.44 3210.66 2181.27 3209.65C2182.1 3208.65 2182.4 3207.83 2181.94 3207.83C2181.47 3207.83 2182.2 3206.42 2183.55 3204.7C2184.93 3202.94 2185.67 3200.72 2185.25 3199.62C2184.67 3198.12 2185.01 3197.85 2186.67 3198.49C2188.28 3199.11 2188.66 3198.85 2188.13 3197.48C2187.7 3196.35 2188.12 3195.64 2189.21 3195.64C2190.2 3195.64 2191 3194.82 2191 3193.81C2191 3192.69 2189.86 3191.98 2188.07 3191.98C2185.74 3191.98 2185.28 3191.49 2185.78 3189.54C2186.45 3186.97 2184.1 3183.06 2182.49 3184.06C2181.97 3184.38 2180.87 3183.83 2180.04 3182.83C2178.78 3181.3 2179.03 3181.02 2181.6 3181.02C2184.72 3181.02 2186.2 3179.17 2185.25 3176.45C2184.95 3175.61 2183.65 3174.92 2182.35 3174.92C2181.04 3174.92 2179.66 3174.1 2179.28 3173.09C2178.89 3172.09 2177.81 3171.27 2176.88 3171.27C2174.54 3171.27 2174.74 3167.7 2177.14 3166.78C2178.63 3166.21 2178.2 3165.66 2175.33 3164.45C2173.04 3163.49 2171.81 3162.23 2172.19 3161.24C2172.57 3160.24 2171.16 3158.86 2168.52 3157.67C2166.17 3156.6 2164.24 3156.21 2164.24 3156.81C2164.24 3157.8 2161.48 3157.49 2155.32 3155.81C2153.67 3155.35 2153.27 3154.45 2153.8 3152.35C2154.32 3150.26 2153.73 3148.89 2151.57 3147.19C2149.95 3145.92 2148.44 3143.27 2148.22 3141.31C2147.91 3138.59 2147.27 3137.85 2145.51 3138.15C2144.25 3138.37 2142.76 3137.82 2142.21 3136.93C2141.4 3135.64 2140.72 3135.61 2138.8 3136.81C2136.87 3138 2135.55 3137.94 2132.07 3136.48C2126.8 3134.28 2125.87 3129.84 2130.79 3130.38C2135.11 3130.86 2134.57 3128.97 2130.1 3127.99C2128.04 3127.53 2126.09 3126.44 2125.75 3125.56C2125.41 3124.68 2123.81 3123.62 2122.18 3123.22C2119.5 3122.54 2118.74 3121.05 2118.9 3116.73C2118.94 3115.89 2117.89 3115.21 2116.57 3115.21C2114.62 3115.21 2114.24 3114.48 2114.51 3111.25C2114.69 3109.07 2115.58 3106.4 2116.47 3105.31C2117.92 3103.57 2117.72 3103.4 2114.71 3103.87L2111.32 3104.4L2114.2 3101.88C2117.01 3099.42 2117.02 3099.36 2114.5 3099.36C2113.09 3099.36 2111.93 3098.82 2111.93 3098.15C2111.93 3097.48 2110.84 3096.93 2109.5 3096.93C2108.16 3096.93 2107.07 3096.38 2107.07 3095.71C2107.07 3095.04 2108.23 3094.49 2109.64 3094.49C2112.09 3094.49 2112.12 3094.35 2110.25 3091.49C2109.17 3089.83 2108.28 3087.66 2108.28 3086.65C2108.28 3085.65 2107.19 3084.24 2105.85 3083.52C2104.38 3082.74 2103.42 3080.97 2103.42 3079.07C2103.42 3076.19 2103.09 3075.99 2099.46 3076.67C2092.78 3077.91 2090.88 3078.43 2083.96 3080.93C2080.28 3082.26 2074.29 3083.68 2070.66 3084.1C2065.44 3084.7 2063.08 3085.74 2059.43 3089.04C2054.23 3093.74 2047.51 3096.92 2042.75 3096.93C2041 3096.93 2037.64 3098.12 2035.3 3099.56C2032.96 3101 2026.14 3103.18 2020.15 3104.4C2010.87 3106.28 2008.98 3106.35 2007.38 3104.92C2005.14 3102.93 2000.02 3102.11 1997.92 3103.42C1997.1 3103.93 1995.3 3103.75 1993.92 3103.01C1992.54 3102.27 1990.42 3101.98 1989.2 3102.37C1986.48 3103.24 1982.76 3101.95 1983.68 3100.46C1984.05 3099.86 1983 3099.36 1981.34 3099.36C1979.69 3099.36 1978.12 3098.74 1977.87 3097.97C1977.52 3096.93 1976.72 3096.94 1974.72 3098.01C1972.55 3099.18 1972.04 3099.13 1972.04 3097.72C1972.04 3096.77 1970.88 3095.69 1969.45 3095.31C1967.72 3094.86 1967.11 3094 1967.59 3092.73C1968.03 3091.59 1967.66 3090.83 1966.67 3090.83C1962.69 3090.83 1954.24 3084.91 1953.62 3081.68C1953.34 3080.23 1952.19 3079.26 1950.74 3079.26C1949.41 3079.26 1947.91 3078.24 1947.41 3077C1946.81 3075.54 1945.78 3075.01 1944.49 3075.5C1943.36 3075.94 1941.43 3075.33 1940.04 3074.11C1937.68 3072.03 1937.61 3072.04 1938.37 3074.14C1938.81 3075.35 1938.68 3076.03 1938.08 3075.66C1937.47 3075.28 1936.63 3072.89 1936.2 3070.33L1935.41 3065.68L1929.1 3065.87C1925.62 3065.97 1922.42 3065.51 1921.98 3064.84C1921.49 3064.1 1920.39 3064.42 1919.15 3065.65C1916.61 3068.2 1915.29 3068.21 1913.88 3065.69C1913.19 3064.45 1910.79 3063.55 1907.54 3063.3C1904.66 3063.09 1901.92 3062.28 1901.44 3061.51C1900.82 3060.49 1900.35 3060.48 1899.75 3061.46C1899.29 3062.2 1897.51 3062.8 1895.8 3062.8C1893.01 3062.8 1892.86 3062.58 1894.35 3060.69C1895.93 3058.69 1895.85 3058.69 1892.72 3060.69C1890.9 3061.85 1888.2 3062.8 1886.72 3062.8C1882.57 3062.8 1875.95 3060.06 1875.95 3058.33C1875.95 3057.48 1875.22 3057.07 1874.33 3057.41C1873.44 3057.75 1872.07 3056.77 1871.28 3055.24C1869.89 3052.53 1869.87 3052.52 1870.53 3055.13C1871.61 3059.41 1867.75 3062.29 1861.11 3062.17C1858.01 3062.11 1854.66 3061.38 1853.67 3060.55C1852.22 3059.35 1851.73 3059.37 1851.23 3060.62C1850.83 3061.62 1850.56 3061.42 1850.5 3060.06C1850.4 3057.9 1848.67 3057.37 1842.99 3057.8C1840.62 3057.98 1838.58 3056.63 1834.78 3052.37C1832 3049.26 1829.72 3045.73 1829.72 3044.52C1829.72 3043.19 1828.32 3041.84 1826.17 3041.08C1824.22 3040.4 1821.46 3038.68 1820.05 3037.26C1818.63 3035.85 1817.02 3034.96 1816.48 3035.3C1815.93 3035.64 1814.45 3035.13 1813.18 3034.17C1811.91 3033.2 1809.89 3032.4 1808.7 3032.38C1805.84 3032.33 1800.38 3028.7 1801.18 3027.39C1802.05 3025.99 1797.71 3023.81 1794.07 3023.81C1792.43 3023.81 1790.42 3022.98 1789.58 3021.98C1787.14 3019.03 1784.86 3019.86 1783.76 3024.11C1783.2 3026.29 1782.5 3028.02 1782.21 3027.96C1781.91 3027.91 1778.8 3027.48 1775.29 3027.01C1771.78 3026.54 1768.9 3025.63 1768.9 3024.98C1768.9 3024.34 1767.87 3023.81 1766.6 3023.81C1765.33 3023.81 1763.98 3022.98 1763.6 3021.98C1763.2 3020.95 1761.39 3020.15 1759.45 3020.15C1757.56 3020.15 1755.27 3019.46 1754.37 3018.63C1753.04 3017.39 1752.92 3017.45 1753.73 3018.93C1754.45 3020.26 1754.05 3020.17 1752.29 3018.63C1749.2 3015.92 1748.65 3015.95 1747.89 3018.88C1747.52 3020.29 1745.85 3021.54 1743.79 3021.94C1741.88 3022.32 1738.29 3023.08 1735.81 3023.64C1732.99 3024.28 1730.85 3024.19 1730.07 3023.41C1729.21 3022.55 1728.1 3022.81 1726.57 3024.2C1725.33 3025.32 1723.67 3026.24 1722.89 3026.24C1722.1 3026.24 1721.46 3026.84 1721.46 3027.56C1721.46 3028.29 1720.78 3028.63 1719.94 3028.33C1719.11 3028.02 1716.78 3028.75 1714.77 3029.96C1712.77 3031.16 1709.34 3032.02 1707.17 3031.87C1705 3031.71 1703.22 3032.07 1703.22 3032.65C1703.22 3033.24 1702.19 3033.39 1700.93 3032.99C1699.54 3032.55 1698.38 3032.94 1697.98 3033.97C1697.23 3035.95 1693.74 3035.67 1686.8 3033.06C1680.43 3030.66 1677.67 3030.67 1677.67 3033.08C1677.67 3034.32 1677 3034.78 1675.85 3034.33C1674.84 3033.95 1674.02 3034.12 1674.02 3034.71C1674.02 3036.79 1667.41 3038.02 1661.88 3036.97C1657.07 3036.05 1656.18 3036.23 1654.73 3038.37C1653.43 3040.29 1652.59 3040.55 1650.78 3039.58C1649.51 3038.9 1648.42 3038.78 1648.35 3039.3C1648.28 3039.83 1648.14 3041.36 1648.04 3042.7C1647.81 3046.02 1641.22 3046.32 1638.97 3043.11C1638.08 3041.86 1636.88 3041.13 1636.28 3041.5C1635.69 3041.86 1632.43 3039.39 1629.03 3036.01C1624.15 3031.14 1622.42 3030.09 1620.75 3030.98C1617.3 3032.84 1611.93 3031.14 1610.66 3027.79C1609.95 3025.92 1608.87 3025.03 1607.8 3025.44C1605.3 3026.4 1597.09 3023.87 1595.46 3021.63C1594.21 3019.92 1593.73 3019.98 1590.85 3022.25C1587.77 3024.68 1583.54 3024.79 1582.12 3022.49C1581.78 3021.93 1580.81 3021.74 1579.96 3022.07C1579.12 3022.39 1575.99 3021.8 1573.02 3020.75C1570.05 3019.7 1567.47 3019.27 1567.3 3019.8C1567.12 3020.33 1560.82 3020.58 1553.29 3020.37C1545.77 3020.15 1538.51 3019.97 1537.18 3019.96C1532.92 3019.93 1525.08 3020.99 1523.09 3021.85C1522.04 3022.31 1519.64 3022.11 1517.78 3021.39C1515.47 3020.52 1513.9 3020.5 1512.89 3021.33C1512.07 3022.01 1511.03 3022.18 1510.56 3021.72C1510.09 3021.25 1506.64 3020.71 1502.9 3020.52C1499.15 3020.32 1495.34 3019.55 1494.43 3018.79C1493.19 3017.76 1492.78 3017.79 1492.78 3018.91C1492.78 3019.74 1491.97 3020.1 1490.99 3019.73C1490.01 3019.35 1488.88 3019.56 1488.49 3020.2C1487.34 3022.06 1484.06 3021.56 1482.39 3019.27C1481.54 3018.11 1479.57 3017.15 1477.99 3017.13C1476.42 3017.12 1475.23 3016.56 1475.34 3015.89C1475.45 3015.21 1473.81 3014.6 1471.69 3014.51C1456.56 3013.92 1455.11 3013.66 1454.4 3011.43C1454 3010.18 1452.55 3009.18 1451.13 3009.18C1449.72 3009.18 1447.62 3008.32 1446.46 3007.27C1444.77 3005.73 1443.46 3005.59 1439.96 3006.56C1437.55 3007.23 1435.87 3007.3 1436.23 3006.72C1436.58 3006.15 1435.9 3005.74 1434.72 3005.82C1428.57 3006.25 1425.31 3003.96 1425.63 2999.43C1425.65 2999.1 1424.38 2998.75 1422.8 2998.65C1421.22 2998.56 1418.31 2997.32 1416.33 2995.91C1412.62 2993.26 1406.57 2992.5 1404.53 2994.43C1403.19 2995.69 1397.9 2993.99 1397.9 2992.3C1397.9 2990.52 1392.6 2989.62 1391.61 2991.24C1390.92 2992.35 1389.83 2992.37 1387.05 2991.31C1384.09 2990.19 1383.11 2990.27 1381.91 2991.72C1381.09 2992.7 1379.4 2993.24 1378.14 2992.91C1376.81 2992.56 1375.57 2993.05 1375.17 2994.08C1374.77 2995.14 1373.61 2995.57 1372.31 2995.15C1371.11 2994.77 1369.77 2995.03 1369.34 2995.73C1367.99 2997.92 1366.35 2997.12 1365.53 2993.86C1364.22 2988.64 1356.36 2987.35 1350.26 2991.35C1348.49 2992.52 1345.75 2993.35 1344.18 2993.21C1338.42 2992.7 1336.13 2993.38 1335.51 2995.78C1334.99 2997.76 1333.78 2998.24 1328.98 2998.36C1325.74 2998.44 1322.62 2998.42 1322.05 2998.32C1321.47 2998.21 1320.24 2998.76 1319.31 2999.54C1318.03 3000.6 1317.2 3000.6 1315.94 2999.56C1314.62 2998.46 1314.12 2998.71 1313.59 3000.74C1313.08 3002.69 1312.31 3003.11 1310.39 3002.51C1308.71 3001.97 1307.64 3002.31 1307.17 3003.52C1306.67 3004.83 1305.21 3005.19 1302.01 3004.81C1299.55 3004.52 1298.21 3004.61 1299.03 3005C1301.19 3006.03 1297.56 3011.2 1294.05 3012.08C1292.54 3012.46 1290.62 3014.02 1289.78 3015.55C1288.02 3018.77 1283.05 3022.7 1280.19 3023.12C1279.1 3023.28 1277.7 3024.94 1277.08 3026.81C1275.57 3031.34 1271.88 3034.89 1269.59 3034.01C1268.24 3033.49 1267.52 3034.35 1266.96 3037.13C1266.39 3040.03 1265.16 3041.41 1261.98 3042.73C1258.03 3044.39 1257.64 3044.34 1255.66 3041.89C1253.93 3039.75 1252.91 3039.47 1250 3040.31C1248.05 3040.87 1245.63 3041.4 1244.63 3041.48C1243.62 3041.56 1241.98 3042 1240.98 3042.46C1239.97 3042.92 1234.77 3042.24 1229.42 3040.95C1223.6 3039.55 1219.52 3039.08 1219.27 3039.79C1219.02 3040.47 1218.05 3040.31 1216.97 3039.41C1215.94 3038.55 1213.42 3037.76 1211.39 3037.66C1209.35 3037.56 1206.97 3036.49 1206.09 3035.28C1204.37 3032.93 1204.25 3033.17 1204.03 3039.54C1203.85 3044.42 1201.53 3045.83 1200.25 3041.83C1199.48 3039.39 1199.29 3039.32 1198.78 3041.26C1198.43 3042.59 1197.49 3043.21 1196.44 3042.81C1195.47 3042.44 1193.55 3043.46 1192.11 3045.11L1189.53 3048.09L1185.76 3045.45C1183.68 3044 1181.56 3042.13 1181.05 3041.3C1180.37 3040.21 1178.93 3040.96 1175.93 3043.96C1173.34 3046.56 1171.05 3047.87 1169.88 3047.43C1168.85 3047.03 1168.29 3046.25 1168.63 3045.7C1169.88 3043.67 1166.56 3043.12 1164.48 3045.01C1163.29 3046.09 1161.41 3046.96 1160.29 3046.96C1159.18 3046.96 1158.26 3047.82 1158.26 3048.86C1158.26 3049.91 1157.71 3050.42 1157.05 3050.01C1156.38 3049.59 1155.81 3048.05 1155.79 3046.58C1155.75 3044.04 1155.61 3044.07 1152.73 3047.36C1151.06 3049.25 1149.03 3050.58 1148.21 3050.31C1147.39 3050.03 1146.13 3050.95 1145.4 3052.35C1144.67 3053.74 1143.45 3054.75 1142.69 3054.59C1141.93 3054.43 1139.3 3055.66 1136.84 3057.33C1132.04 3060.6 1130.28 3061.08 1130.28 3059.14C1130.28 3058.41 1129.29 3058.53 1127.85 3059.43C1126.51 3060.27 1125.42 3061.59 1125.42 3062.36C1125.42 3063.74 1122.77 3065.24 1120.32 3065.24C1119.64 3065.24 1119.4 3064.39 1119.8 3063.35C1120.24 3062.2 1120.02 3061.77 1119.24 3062.25C1118.53 3062.69 1117.67 3061.94 1117.31 3060.58C1116.54 3057.61 1111.99 3057.71 1108.61 3060.77C1105.65 3063.46 1104.11 3063.34 1101.18 3060.18C1099.47 3058.35 1098.27 3057.91 1097.18 3058.74C1094.7 3060.62 1089.32 3060.49 1087.69 3058.51C1086.18 3056.69 1083.47 3055.94 1084.45 3057.62C1084.75 3058.13 1084.5 3059.83 1083.91 3061.41C1083.19 3063.33 1082.2 3064.04 1080.92 3063.55C1079.84 3063.13 1077.29 3064.13 1075 3065.88C1071.72 3068.39 1070.42 3068.74 1067.91 3067.78C1066.22 3067.14 1064.47 3066.03 1064.04 3065.32C1062.45 3062.75 1061.01 3064.1 1061.43 3067.75C1061.73 3070.36 1061.41 3071.3 1060.34 3070.89C1059.5 3070.57 1058.22 3070.9 1057.51 3071.62C1056.57 3072.55 1055.79 3072.03 1054.78 3069.81C1053.51 3067 1053.01 3066.81 1049.82 3067.93C1046.94 3068.93 1046.54 3069.49 1047.7 3070.89C1048.49 3071.84 1048.73 3073.01 1048.24 3073.5C1047.76 3073.98 1046.41 3073.21 1045.25 3071.77C1043.66 3069.82 1042.62 3069.46 1041.07 3070.32C1039.93 3070.96 1037.92 3071.14 1036.6 3070.72C1034.9 3070.18 1034.19 3070.51 1034.19 3071.86C1034.19 3072.91 1033.3 3073.77 1032.21 3073.77C1030.62 3073.77 1030.53 3073.43 1031.71 3072C1033.33 3070.04 1032.39 3067.51 1030.14 3067.79C1027.03 3068.18 1026 3067.55 1024.49 3064.33C1023.63 3062.48 1022.71 3061.56 1022.45 3062.26C1021.84 3063.94 1015.16 3063.46 1012.9 3061.59C1011.94 3060.79 1009.23 3059.95 1006.89 3059.73C1004.55 3059.52 1002.11 3059.01 1001.47 3058.61C1000.82 3058.22 999.946 3058.46 999.519 3059.15C999.092 3059.84 998.234 3060.09 997.611 3059.71C995.548 3058.43 993.803 3060.43 995.352 3062.3C996.504 3063.69 996.269 3064.02 994.122 3064.02C992.663 3064.02 991.807 3063.47 992.221 3062.8C992.634 3062.13 992.481 3061.59 991.88 3061.59C991.278 3061.59 990.163 3060.21 989.401 3058.54C988.638 3056.86 987.182 3055.49 986.164 3055.49C983.942 3055.49 983.682 3058.69 985.835 3059.56C987.051 3060.05 987.051 3060.19 985.835 3060.27C984.998 3060.32 984.314 3061.15 984.314 3062.11C984.314 3063.9 980.205 3065.84 978.547 3064.84C977.006 3063.9 974.982 3066.96 975.197 3069.9C975.331 3071.72 974.86 3072.45 973.814 3072.05C972.942 3071.72 971.966 3071.87 971.647 3072.38C971.329 3072.9 967.667 3073.28 963.512 3073.23C957.278 3073.16 955.857 3073.52 955.396 3075.28C954.767 3077.69 951.299 3078.29 951.775 3075.9C951.942 3075.07 951.162 3074.53 950.041 3074.72C948.921 3074.9 947.657 3074.49 947.233 3073.81C946.808 3073.12 945.086 3072.55 943.406 3072.55C940.259 3072.55 936.874 3070.07 936.874 3067.77C936.874 3067.05 936.144 3066.46 935.252 3066.46C934.239 3066.46 933.63 3065 933.63 3062.57C933.63 3060.43 932.991 3058.46 932.211 3058.2C931.43 3057.94 930.792 3056.95 930.792 3056C930.792 3055.05 929.971 3054.27 928.967 3054.27C927.964 3054.27 927.142 3053.79 927.142 3053.2C927.142 3051.63 922.409 3050.63 921.557 3052.02C921.131 3052.71 919.637 3052.4 917.906 3051.26C915.473 3049.67 914.978 3049.63 914.978 3051.07C914.978 3053.29 911.854 3054.66 906.333 3054.87C903.049 3054.99 901.977 3054.55 902.076 3053.13C902.155 3051.98 901.006 3051.06 899.165 3050.81C897.492 3050.57 895.412 3049.8 894.541 3049.08C893.343 3048.09 892.786 3048.45 892.241 3050.53C891.673 3052.71 890.837 3053.18 888.223 3052.8C885.616 3052.41 884.627 3052.96 883.516 3055.43C879.9 3063.43 876.957 3067.05 872.089 3069.48C867.439 3071.81 867.538 3071.82 867.538 3068.9C867.538 3067.02 866.727 3066.46 864.019 3066.46C861.904 3066.46 860.199 3067.24 859.747 3068.43C859.15 3069.99 858.634 3070.09 857.242 3068.93C856.279 3068.13 854.447 3067.81 853.171 3068.22C851.784 3068.66 850.214 3068.18 849.265 3067.04C848.392 3065.98 845.369 3064.07 842.547 3062.78C839.723 3061.49 837.109 3059.64 836.735 3058.66C836.361 3057.69 834.517 3056.71 832.638 3056.49C829.966 3056.19 829.279 3055.53 829.49 3053.48C829.76 3050.85 828.749 3050.1 822.242 3048.14C820.152 3047.51 818.619 3047.62 818.121 3048.43C817.622 3049.24 816.917 3048.98 816.22 3047.73C815.019 3045.58 810.366 3044.97 810.366 3046.96C810.366 3047.63 809.819 3048.18 809.15 3048.18C808.481 3048.18 807.933 3047.08 807.933 3045.74C807.933 3042.72 803.675 3042.4 802.55 3045.34C801.941 3046.93 801.451 3047.05 800.302 3045.9C799.151 3044.74 799.196 3044.2 800.505 3043.39C801.832 3042.56 801.64 3042.06 799.583 3040.96C798.155 3040.19 796.986 3038.76 796.986 3037.78C796.986 3036.8 796.165 3035.99 795.161 3035.99C794.158 3035.99 793.337 3036.82 793.337 3037.82C793.337 3038.83 793.884 3039.65 794.553 3039.65C795.222 3039.65 795.769 3040.15 795.769 3040.75C795.769 3041.36 794.675 3041.57 793.337 3041.22C791.998 3040.87 790.904 3040.23 790.904 3039.8C790.904 3038.45 783.612 3035.73 781.824 3036.42C780.882 3036.78 778.086 3036.09 775.611 3034.88C771.676 3032.96 770.692 3032.9 767.78 3034.35C765.948 3035.27 763.023 3037.45 761.28 3039.19C759.424 3041.05 757.346 3042.07 756.261 3041.66C754.59 3041.01 753.684 3043.56 754.268 3047.27C754.347 3047.77 753.636 3048.18 752.688 3048.18C751.74 3048.18 750.74 3048.85 750.466 3049.68C750.098 3050.78 749.155 3050.64 746.855 3049.13C743.412 3046.87 741.095 3047.68 744.295 3050.02C746.135 3051.37 746.064 3051.84 743.454 3055.63C741.886 3057.9 740.5 3059.91 740.377 3060.1C740.253 3060.28 738.707 3059.89 736.942 3059.21C734.879 3058.43 733.732 3058.41 733.732 3059.18C733.732 3059.83 734.52 3060.37 735.485 3060.37C738.041 3060.37 739.031 3062.64 737.356 3064.66C736.104 3066.17 735.566 3066.18 733.456 3064.7C731.314 3063.19 730.728 3063.24 728.751 3065.09C727.508 3066.25 726.267 3068.54 725.992 3070.18C725.695 3071.95 724.819 3072.99 723.834 3072.73C718.961 3071.45 713.279 3071.2 712.639 3072.24C712.212 3072.93 713.154 3073.18 714.914 3072.84C717.351 3072.38 717.919 3072.76 717.919 3074.87C717.919 3077.04 717.409 3077.35 714.889 3076.71C712.735 3076.17 711.643 3076.52 711.113 3077.9C710.702 3078.97 709.876 3079.55 709.276 3079.18C708.677 3078.81 708.187 3079.16 708.187 3079.96C708.187 3081.01 705.754 3081.24 699.433 3080.78C691.292 3080.2 690.93 3080.28 694.263 3081.85L697.848 3083.54L692.531 3083.02C688.84 3082.66 687.602 3082.88 688.483 3083.77C690.254 3085.54 688.902 3088.4 686.289 3088.4C684.443 3088.4 684.257 3089.02 685.054 3092.56L685.991 3096.73L680.301 3096.44C673.563 3096.1 671.921 3095.24 670.425 3091.3C669.101 3087.82 666.076 3086.5 656.715 3085.33C650.213 3084.51 649.799 3084.61 649.799 3087.04C649.799 3090.68 647.543 3090.24 646.05 3086.31C645.132 3083.89 644.526 3083.43 643.799 3084.61C643.211 3085.56 641.818 3085.91 640.391 3085.45C636.695 3084.28 633.577 3085.82 635.344 3087.96C637.708 3090.81 635.593 3091.22 632.824 3088.45C630.768 3086.39 629.38 3086.03 625.996 3086.66C622.62 3087.3 621.891 3087.91 622.442 3089.66C623.343 3092.5 621.301 3093.75 619.434 3091.5C618.297 3090.12 617.355 3090.04 615.018 3091.11C612.537 3092.24 611.76 3092.08 610.284 3090.12C609.102 3088.56 608.505 3088.34 608.48 3089.45C608.454 3090.57 607.434 3090.93 605.407 3090.54C603.682 3090.21 601.782 3090.67 601.001 3091.61C599.94 3092.9 600.076 3093.27 601.602 3093.27C602.688 3093.27 603.575 3093.75 603.575 3094.33C603.575 3094.92 601.018 3095.45 597.894 3095.51C594.77 3095.58 591.895 3096.06 591.507 3096.58C590.279 3098.25 586.546 3097.94 586.546 3096.18C586.546 3095.24 585.333 3094.49 583.809 3094.49C581.325 3094.49 581.091 3095.02 581.285 3100.28C581.602 3108.91 577.118 3113.85 572.361 3110.11C571.491 3109.42 570.646 3109.49 570.16 3110.27C569.727 3110.98 570.044 3111.55 570.864 3111.55C571.683 3111.55 572.065 3111.84 571.711 3112.19C570.685 3113.22 564.97 3110.65 562.266 3107.94C558.736 3104.41 556.701 3104.85 554.431 3109.64C552.398 3113.93 552.674 3113.83 542.424 3114.08C541.239 3114.11 540.564 3114.61 540.924 3115.2C541.284 3115.78 541.12 3116.54 540.559 3116.89C538.999 3117.85 535.192 3112.78 535.964 3110.76C536.338 3109.79 536.192 3109.27 535.639 3109.61C534.004 3110.62 522.075 3106.34 522.075 3104.75C522.075 3103.94 521.209 3102.95 520.151 3102.54C517.176 3101.4 516.783 3101.65 518.426 3103.63C519.472 3104.89 519.518 3105.46 518.575 3105.46C517.824 3105.46 517.19 3106.42 517.167 3107.59C517.143 3108.76 516.334 3111.09 515.368 3112.77L513.613 3115.82L512.844 3113.1C512.106 3110.5 508.763 3109.86 506.699 3111.93C506.235 3112.39 504.716 3112.78 503.322 3112.79C501.928 3112.8 499.42 3113.59 497.747 3114.54C490.911 3118.45 486.809 3119.86 484.238 3119.18C482.075 3118.62 481.679 3118.88 482.293 3120.48C483.133 3122.67 478.452 3128.61 475.884 3128.61C474.865 3128.61 474.629 3129.64 475.159 3131.76C475.835 3134.46 475.617 3134.8 473.617 3134.16C471.896 3133.61 471.103 3134.13 470.581 3136.13C469.912 3138.69 469.754 3138.73 467.597 3136.77C464.494 3133.96 462.379 3134.2 458.998 3137.77C457.423 3139.44 455.567 3140.8 454.875 3140.8C454.182 3140.8 452.994 3141.65 452.232 3142.7C451.055 3144.31 449.083 3145.13 445.268 3145.58C444.84 3145.63 444.076 3147.18 443.574 3149.03L442.659 3152.38L441.785 3149.33C440.96 3146.46 440.854 3146.42 439.92 3148.72C438.045 3153.33 434.537 3153.6 426.847 3149.71C423.552 3148.05 423.501 3148.07 425.022 3150.57C426.387 3152.82 426.239 3153.43 423.85 3155.39C422.345 3156.63 421.113 3158.24 421.113 3158.97C421.113 3159.7 420.565 3160.3 419.896 3160.3C419.227 3160.3 418.68 3159.48 418.68 3158.47C418.68 3157.46 419.227 3156.64 419.896 3156.64C420.565 3156.64 421.092 3155.68 421.067 3154.51C421.035 3152.99 419.831 3153.77 416.864 3157.25C413.525 3161.16 412.406 3161.81 411.177 3160.58C409.947 3159.35 408.889 3159.9 405.792 3163.39C402.662 3166.91 401.358 3167.58 398.858 3166.95C396.949 3166.47 395.494 3165.04 395.028 3163.18C393.904 3158.7 384.634 3149.78 380.06 3148.78C376.887 3148.09 376.242 3148.27 376.784 3149.69C377.548 3151.68 374.145 3153.52 373.031 3151.71C371.685 3149.53 370.218 3150.54 369.415 3154.2C368.416 3158.76 366.944 3158.87 365.355 3154.51C364.683 3152.67 364.09 3151.84 364.037 3152.68C363.861 3155.47 361.508 3154.25 361.508 3151.37C361.508 3149.81 360.052 3147.21 358.273 3145.58C355.823 3143.35 355.222 3143.15 355.801 3144.76C356.222 3145.93 356.036 3146.89 355.389 3146.89C354.74 3146.89 354.193 3146.21 354.171 3145.37C354.15 3144.53 353.327 3142.78 352.341 3141.47C350.952 3139.63 350.226 3139.43 349.096 3140.56C347.379 3142.28 344.066 3142.44 341.116 3140.95C334.965 3137.83 329.407 3135.86 330.794 3137.29C332.857 3139.41 332.716 3141.22 330.552 3140.38C329.405 3139.94 329.013 3140.29 329.43 3141.38C329.792 3142.32 328.719 3143.94 326.975 3145.09C323.469 3147.39 316.344 3146.81 309.408 3143.65C305.36 3141.81 302.275 3142.43 305.51 3144.43C308.209 3146.1 304.793 3149.46 301.157 3148.71C299.561 3148.38 296.842 3147.82 295.116 3147.45C292.394 3146.88 292.083 3147.13 292.766 3149.28C293.199 3150.65 293.225 3151.77 292.823 3151.77C291.019 3151.77 283.981 3148.26 282.197 3146.47C281.112 3145.39 277.725 3144.29 274.671 3144.03C269.909 3143.64 269.006 3143.93 268.321 3146.09C266.545 3151.7 261.57 3153.8 256.428 3151.13C253.748 3149.73 252.52 3149.64 251.229 3150.71C250.3 3151.48 249.187 3151.76 248.755 3151.33C248.323 3150.9 246.949 3151.47 245.699 3152.6C243.773 3154.35 242.821 3154.44 239.432 3153.22C234.344 3151.37 233.785 3151.4 233.785 3153.47C233.785 3157.41 220.707 3151.26 211.384 3142.93C210.072 3141.76 208.255 3140.8 207.349 3140.8C206.442 3140.8 205.862 3139.9 206.058 3138.79C206.611 3135.68 204.1 3135.58 202.753 3138.66C201.697 3141.07 200.655 3141.41 194.275 3141.41C188.413 3141.41 186.923 3141.81 186.597 3143.47C186.28 3145.09 184.872 3145.52 180.027 3145.49C176.636 3145.46 173.473 3146.07 172.999 3146.84C172.525 3147.6 171.014 3148.32 169.643 3148.42C168.154 3148.53 167.391 3149.24 167.75 3150.18C168.08 3151.04 167.473 3152.08 166.4 3152.5C163.798 3153.5 163.911 3155.4 166.578 3155.5C169.83 3155.62 163.472 3158.01 158.367 3158.59C156.025 3158.86 152.193 3159.31 149.852 3159.61C147.51 3159.9 144.654 3160.18 143.503 3160.22C142.159 3160.27 141.663 3160.95 142.113 3162.13C143.071 3164.63 141.347 3164.43 139.442 3161.82C137.986 3159.83 137.738 3159.87 135.5 3162.45C134.02 3164.16 132.366 3164.92 131.143 3164.45C130.058 3164.03 129.173 3164.3 129.173 3165.04C129.173 3165.78 128.293 3166.39 127.218 3166.39C125.986 3166.39 125.52 3167.06 125.959 3168.21C126.436 3169.45 125.615 3170.28 123.352 3170.84C121.536 3171.29 119.137 3172.7 118.023 3173.97C115.639 3176.69 104.673 3177.31 101.764 3174.89C100.477 3173.82 99.9788 3173.79 99.9788 3174.8C99.9788 3175.57 98.4739 3176.84 96.6335 3177.62C94.793 3178.41 92.3506 3179.83 91.2046 3180.79C90.0588 3181.75 88.3337 3182.23 87.3716 3181.86C86.3074 3181.45 85.3816 3182.1 85.0083 3183.53C84.6711 3184.82 83.3867 3186.24 82.1521 3186.68C80.9172 3187.13 79.1401 3188.09 78.2012 3188.82C76.1636 3190.41 70.7847 3190.71 70.7847 3189.23C70.7847 3188.65 70.2153 3188.54 69.5183 3188.97C68.8225 3189.4 68.5854 3190.8 68.9917 3192.09C69.5439 3193.83 68.9395 3194.72 66.6086 3195.61C64.8911 3196.26 63.4861 3197.36 63.4861 3198.05C63.4861 3198.73 62.5288 3200.3 61.3574 3201.54C60.186 3202.77 58.6812 3204.69 58.0122 3205.81C57.1292 3207.29 54.4956 3208.02 48.4014 3208.45C43.7849 3208.78 39.2927 3209.65 38.4194 3210.37C37.5459 3211.1 36.2358 3211.32 35.5085 3210.87C34.781 3210.42 33.5183 3210.61 32.7034 3211.29C31.8872 3211.97 29.0374 3212.7 26.3696 3212.91C22.5403 3213.23 21.595 3213.76 21.8772 3215.44C22.0732 3216.62 21.6304 3217.58 20.8933 3217.58C20.1548 3217.58 19.8447 3217.1 20.2024 3216.52C20.5601 3215.94 17.7463 3215.1 13.95 3214.66C7.4519 3213.89 6.84131 3214.05 3.52417 3217.37L0 3220.9L2.19092 3225.03C3.39624 3227.3 4.25879 3229.6 4.10791 3230.14C3.71875 3231.54 15.1055 3241.95 17.0276 3241.95C17.9045 3241.95 18.2937 3242.48 17.8923 3243.13C17.491 3243.78 18.0286 3245.99 19.0869 3248.04C20.1453 3250.09 20.7061 3252.26 20.3337 3252.87C19.9602 3253.47 20.1877 3254.3 20.8384 3254.7C21.4893 3255.1 21.7546 3256.13 21.4297 3256.98C21.0769 3257.9 22.5366 3259.2 25.0229 3260.17C27.665 3261.21 28.9763 3262.42 28.5786 3263.46C27.8376 3265.4 29.6162 3265.65 31.4019 3263.86C32.729 3262.53 41.1489 3261.82 42.2693 3262.94C42.6367 3263.31 43.0054 3264.91 43.0879 3266.49C43.2827 3270.23 44.9917 3272.42 47.72 3272.42C48.9207 3272.42 50.1006 3273.01 50.3416 3273.74C50.8367 3275.22 71.0266 3277.2 77.875 3276.43C84.1421 3275.73 90.2473 3277.06 90.2473 3279.13C90.2473 3280.08 91.2046 3281.37 92.376 3282C95.8721 3283.86 106.692 3284.4 112.762 3283.01C116.872 3282.07 120.266 3282.09 125.078 3283.1C129.556 3284.04 132.741 3284.11 134.852 3283.31C136.813 3282.56 138.499 3282.54 139.363 3283.26C140.12 3283.89 144.159 3284.26 148.337 3284.09C153.665 3283.86 155.934 3284.21 155.934 3285.25C155.934 3287.54 164.702 3288.69 182.789 3288.78C195.618 3288.85 200.235 3289.32 203.468 3290.91C209.79 3294 221.448 3296.23 228.919 3295.78C246.211 3294.73 255.68 3295.76 255.68 3298.68C255.68 3299.57 256.364 3300.7 257.201 3301.18C258.036 3301.66 258.314 3301.61 257.816 3301.06C257.319 3300.51 257.927 3299.34 259.166 3298.47C260.851 3297.29 262.537 3297.2 265.848 3298.12C269.406 3299.1 270.277 3299.93 270.277 3302.33C270.277 3305.65 271.047 3305.89 275.839 3304.07C278.63 3303.01 279.399 3303.21 280.946 3305.42C282.531 3307.69 283.529 3307.93 288.608 3307.25C293.4 3306.62 294.66 3306.86 295.626 3308.58C296.588 3310.31 297.137 3310.41 298.637 3309.16C299.669 3308.31 300.771 3308.13 301.158 3308.75C301.536 3309.37 303.317 3309.59 305.115 3309.24C307.571 3308.77 308.224 3309.04 307.743 3310.32C307.225 3311.69 309.407 3312.08 319.053 3312.33C329.276 3312.6 331.728 3312.26 335.995 3310.04C339.994 3307.95 341.514 3307.7 343.644 3308.77C346.669 3310.29 354.39 3310.68 364.3 3309.8C366.839 3309.57 369.198 3309.84 369.543 3310.4C369.888 3310.96 372.19 3311.12 374.658 3310.75C382.309 3309.61 390.702 3309.46 390.702 3310.46C390.702 3310.99 391.523 3311.41 392.527 3311.41C393.531 3311.41 394.352 3311.96 394.352 3312.63C394.352 3313.3 395.109 3313.85 396.034 3313.85C396.96 3313.85 397.983 3314.87 398.306 3316.11C398.835 3318.13 399.62 3318.26 406.05 3317.32C415.726 3315.92 441.186 3317.97 439.905 3320.05C439.527 3320.66 442.015 3320.91 445.582 3320.61C449.076 3320.32 452.799 3320.53 453.857 3321.08C454.915 3321.63 456.856 3321.69 458.171 3321.21C459.727 3320.64 461.353 3321.08 462.829 3322.46C465.917 3325.34 471.935 3326.06 477.068 3324.17C482.987 3321.99 488.987 3321.07 489.451 3322.27C489.665 3322.82 491.073 3323.66 492.577 3324.13C494.595 3324.76 495.314 3324.49 495.314 3323.12C495.314 3320.6 500.035 3318.09 501.675 3319.74C502.354 3320.42 503.664 3320.68 504.586 3320.33C505.508 3319.97 506.262 3320.17 506.262 3320.77C506.262 3322.46 529.17 3320.23 531.958 3318.27C535.45 3315.82 541.904 3318.2 540.237 3321.32C539.227 3323.21 539.607 3323.38 543.664 3322.79C546.175 3322.43 549.711 3321.09 551.525 3319.82C555.323 3317.16 558.568 3316.81 558.568 3319.07C558.568 3321.6 562.915 3324.68 564.804 3323.48C567.096 3322.03 571.949 3322.11 571.949 3323.6C571.949 3324.27 573.016 3324.82 574.321 3324.82C575.626 3324.82 577.157 3325.65 577.723 3326.66C578.578 3328.19 579.83 3328.3 585.091 3327.3C588.577 3326.64 592.963 3324.96 594.838 3323.57C597.557 3321.56 598.879 3321.29 601.365 3322.23C603.508 3323.05 604.906 3323 605.838 3322.07C606.833 3321.07 607.923 3321.37 609.946 3323.22C611.46 3324.6 613.404 3325.47 614.265 3325.16C615.126 3324.84 617.863 3325.55 620.347 3326.74C622.831 3327.92 626.703 3329 628.954 3329.14C631.203 3329.27 633.419 3329.99 633.876 3330.74C634.42 3331.62 638.151 3331.91 644.625 3331.56C652.209 3331.17 654.402 3331.4 653.957 3332.56C653.143 3334.69 661.895 3338.78 663.601 3337.07C664.306 3336.37 664.48 3335.79 663.989 3335.79C663.496 3335.79 663.68 3334.69 664.396 3333.35C665.113 3332.01 666.245 3330.91 666.914 3330.91C667.711 3330.91 667.696 3331.73 666.872 3333.27C666.18 3334.57 665.637 3336.08 665.666 3336.62C665.697 3337.17 666.804 3335.56 668.128 3333.05C669.453 3330.53 671.377 3328.48 672.404 3328.48C673.431 3328.48 673.933 3329.02 673.519 3329.69C673.106 3330.36 673.32 3330.91 673.994 3330.91C674.669 3330.91 676.682 3328.99 678.468 3326.65C682.183 3321.77 683.616 3321.45 687.116 3324.72C690.047 3327.45 693.111 3328.09 696.994 3326.78C698.587 3326.24 700.431 3326.37 701.283 3327.08C702.104 3327.76 704.404 3328.12 706.394 3327.87C710.642 3327.35 717.919 3329.62 717.919 3331.47C717.919 3333.51 725.167 3336.18 731.859 3336.62C745.152 3337.48 745.305 3337.51 744.93 3339.75C744.511 3342.26 749.393 3342.76 751.702 3340.45C752.763 3339.39 753.887 3339.37 756.08 3340.37C757.704 3341.11 760.182 3341.42 761.587 3341.05C762.993 3340.68 764.142 3340.93 764.142 3341.6C764.142 3343.57 769.706 3344.06 772.117 3342.29C774.903 3340.25 778.086 3340.21 780.174 3342.19C781.057 3343.02 785.337 3343.87 789.684 3344.07C794.03 3344.27 798.816 3345.24 800.321 3346.23C801.968 3347.31 804.27 3347.72 806.104 3347.26C808.447 3346.67 809.15 3346.96 809.15 3348.53C809.15 3349.95 809.824 3350.36 811.364 3349.87C812.58 3349.49 815.728 3349.96 818.358 3350.92C820.987 3351.89 822.707 3352.72 822.179 3352.76C821.651 3352.81 822.336 3354.05 823.7 3355.52C825.063 3356.98 826.18 3358.82 826.18 3359.61C826.18 3361.51 842.885 3361.17 846.464 3359.19C847.918 3358.39 850.382 3357.77 851.938 3357.81C853.493 3357.85 855.587 3357.76 856.59 3357.61C860.756 3356.99 862.925 3357.74 862.194 3359.55C861.788 3360.56 861.176 3362.06 860.835 3362.9C860.051 3364.83 866.293 3365.35 868.478 3363.54C869.651 3362.56 869.841 3362.74 869.26 3364.25C868.263 3366.86 869.421 3366.64 876.053 3362.99ZM1970.74 3337.89C1970.89 3336.43 1972.56 3336.72 1973.08 3338.29C1973.35 3339.09 1972.91 3339.53 1972.11 3339.26C1971.3 3338.99 1970.69 3338.38 1970.74 3337.89ZM1714.16 3334.57C1714.16 3333.9 1713.58 3333.35 1712.88 3333.35C1712.17 3333.35 1711.93 3333.9 1712.34 3334.57C1712.75 3335.24 1713.33 3335.79 1713.63 3335.79C1713.92 3335.79 1714.16 3335.24 1714.16 3334.57ZM660.747 3333.35C660.747 3332.68 661.294 3332.13 661.963 3332.13C662.632 3332.13 663.18 3332.68 663.18 3333.35C663.18 3334.02 662.632 3334.57 661.963 3334.57C661.294 3334.57 660.747 3334.02 660.747 3333.35ZM655.881 3332.74C655.881 3331.74 656.412 3330.91 657.06 3330.91C657.707 3330.91 657.923 3331.74 657.538 3332.74C657.153 3333.75 656.622 3334.57 656.359 3334.57C656.097 3334.57 655.881 3333.75 655.881 3332.74ZM1445.94 3330.91C1446.36 3330.24 1447.21 3329.69 1447.84 3329.69C1448.47 3329.69 1448.99 3330.24 1448.99 3330.91C1448.99 3331.58 1448.13 3332.13 1447.09 3332.13C1446.05 3332.13 1445.53 3331.58 1445.94 3330.91ZM2125.54 3270.37C2124.66 3270.01 2123.61 3270.06 2123.21 3270.46C2122.81 3270.87 2123.52 3271.15 2124.81 3271.1C2126.22 3271.04 2126.51 3270.75 2125.54 3270.37ZM2137.45 3244.97C2135.1 3242.13 2136.78 3241.6 2139.29 3244.38C2140.51 3245.72 2140.94 3246.82 2140.25 3246.82C2139.56 3246.82 2138.3 3245.99 2137.45 3244.97ZM71.0632 3194.65C70.7981 3193.85 71.4487 3193.2 72.5083 3193.2C73.5667 3193.2 74.4338 3194.07 74.4338 3195.13C74.4338 3197.28 71.8149 3196.91 71.0632 3194.65ZM238.65 3158.54C238.65 3158.25 239.198 3157.67 239.867 3157.25C240.536 3156.84 241.083 3157.08 241.083 3157.79C241.083 3158.5 240.536 3159.08 239.867 3159.08C239.198 3159.08 238.65 3158.84 238.65 3158.54ZM438.537 3148.84C438.909 3147.87 438.489 3146.47 437.604 3145.73C436.403 3144.73 435.822 3144.84 435.316 3146.16C434.943 3147.14 435.363 3148.54 436.249 3149.27C437.449 3150.27 438.031 3150.16 438.537 3148.84ZM199.725 3138.36C199.725 3137.69 199.177 3137.14 198.508 3137.14C197.839 3137.14 197.292 3137.69 197.292 3138.36C197.292 3139.03 197.839 3139.58 198.508 3139.58C199.177 3139.58 199.725 3139.03 199.725 3138.36ZM2109.5 3115.21C2109.5 3114.54 2110.05 3113.99 2110.72 3113.99C2111.39 3113.99 2111.93 3114.54 2111.93 3115.21C2111.93 3115.88 2111.39 3116.43 2110.72 3116.43C2110.05 3116.43 2109.5 3115.88 2109.5 3115.21ZM523.479 3111.01C523.212 3109.62 523.65 3109.03 524.696 3109.38C525.597 3109.68 526.521 3110.9 526.754 3112.1C527.021 3113.49 526.583 3114.07 525.537 3113.72C524.636 3113.42 523.712 3112.2 523.479 3111.01ZM597.493 3102.48C597.493 3101.2 599.828 3100.66 600.522 3101.78C600.942 3102.46 600.432 3103.02 599.39 3103.02C598.347 3103.02 597.493 3102.78 597.493 3102.48ZM601.143 3098.76C601.143 3097.7 602.24 3096.93 603.724 3096.93C605.882 3096.93 606.057 3097.23 604.792 3098.76C603.959 3099.76 602.797 3100.58 602.211 3100.58C601.623 3100.58 601.143 3099.76 601.143 3098.76ZM687.508 3092.66C687.508 3091.66 687.997 3090.83 688.594 3090.83C689.192 3090.83 689.996 3091.66 690.381 3092.66C690.807 3093.78 690.383 3094.49 689.295 3094.49C688.312 3094.49 687.508 3093.67 687.508 3092.66ZM933.074 3069.79C934.276 3068.6 934.414 3068.74 933.755 3070.47C933.297 3071.67 932.618 3072.35 932.243 3071.98C931.868 3071.6 932.242 3070.62 933.074 3069.79ZM881.304 3066.23C881.692 3065.26 881.98 3065.55 882.039 3066.97C882.091 3068.25 881.804 3068.97 881.4 3068.57C880.996 3068.16 880.953 3067.11 881.304 3066.23Z" fill="white"/>
<rect x="247" y="233" width="1920" height="2983" fill="white"/>
</svg>
