<svg width="2191" height="377" viewBox="0 0 2191 377" fill="none" xmlns="http://www.w3.org/2000/svg">
<path fill-rule="evenodd" clip-rule="evenodd" d="M1314.95 3.01374C1311.94 4.67357 1308.27 7.15356 1306.8 8.52579C1304.99 10.2161 1303.09 10.8242 1300.94 10.4111C1298.64 9.96995 1297.35 10.4659 1296.31 12.1879C1295.52 13.5017 1292.3 15.9 1289.14 17.5184C1285.99 19.1356 1282.82 21.5571 1282.1 22.8989C1281.12 24.7476 1279.56 25.3375 1275.66 25.3375C1271.81 25.3375 1270.14 25.959 1268.98 27.8223C1268.12 29.1885 1266.91 29.9843 1266.27 29.5906C1264.25 28.3427 1256.56 30.3901 1256.56 32.1754C1256.56 33.1065 1255.82 33.8682 1254.91 33.8682C1254.01 33.8682 1251.78 35.2477 1249.96 36.9344C1248.15 38.621 1246.15 39.6862 1245.53 39.2998C1244.9 38.9147 1244.39 39.111 1244.39 39.7374C1244.39 40.3638 1242.62 41.2948 1240.44 41.8079C1238.27 42.3197 1236.21 42.8084 1235.88 42.8925C1235.55 42.9766 1234.57 43.4896 1233.72 44.0307C1232.87 44.573 1230.66 44.6852 1228.82 44.2781C1225.89 43.6347 1223.6 42.1211 1216.72 36.2836C1215.87 35.5621 1212.83 35.2819 1209.8 35.6463C1206.82 36.0046 1204.07 35.7693 1203.67 35.1247C1203.01 34.0486 1200.39 34.8858 1191.15 39.1317C1189.63 39.83 1185.25 40.5002 1181.42 40.6197C1172.58 40.8975 1173.02 40.7501 1172.27 43.6176C1171.89 45.0983 1170.52 46.1269 1168.79 46.239C1163.35 46.5887 1158.63 45.8112 1157.7 44.4134C1157.05 43.4275 1156.39 43.6529 1155.5 45.1665C1154.8 46.3535 1153.69 46.9921 1153.04 46.5851C1152.38 46.178 1151.18 46.3121 1150.37 46.8837C1147.77 48.7275 1139.78 47.0238 1139.78 44.6242C1139.78 43.9271 1138.89 43.6993 1137.8 44.1173C1136.72 44.5365 1135.08 44.2586 1134.17 43.5031C1133.26 42.7463 1131.17 42.4647 1129.53 42.8767C1127.33 43.4299 1126.08 42.9583 1124.77 41.0803C1123.28 38.9537 1122.56 38.76 1120.42 39.9092C1118.49 40.9451 1117.93 40.9329 1118.17 39.8616C1118.35 39.0793 1117.72 38.158 1116.78 37.8155C1115.58 37.3792 1115.3 37.8033 1115.85 39.2255C1116.95 42.0991 1111.78 44.0417 1102.07 44.4061C1086.88 44.9752 1076.38 46.0489 1074.11 47.2651C1070.41 49.2528 1067.41 48.6934 1064.37 45.4456C1061.32 42.2015 1058.16 41.1461 1060.72 44.2269C1061.98 45.7491 1061.82 46.055 1059.78 46.055C1058.43 46.055 1057.02 46.8495 1056.65 47.8208C1056.17 49.0834 1054.37 49.4916 1050.33 49.254C1045.63 48.9761 1044.18 48.2705 1041.65 45.0313L1038.61 41.1425L1035.19 44.818C1033.3 46.8386 1030.95 48.4923 1029.95 48.4923C1028.95 48.4923 1027.82 49.3149 1027.43 50.3203C1027.05 51.3257 1025.57 52.1483 1024.15 52.1483C1022.73 52.1483 1020.62 53.328 1019.45 54.771C1017.62 57.0438 1016.03 57.4045 1007.55 57.4837C1001.01 57.5446 997.112 57.0304 995.79 55.9311C994.291 54.6844 993.408 54.6247 992.137 55.6813C990.945 56.6721 989.513 56.7147 987.188 55.83C984.606 54.8453 984.088 54.0483 984.725 52.035C985.372 49.995 985.085 49.5843 983.287 49.9755C982.051 50.2448 981.178 51.1186 981.345 51.9156C981.513 52.7138 981.101 53.367 980.432 53.367C979.763 53.367 979.216 52.882 979.216 52.2909C979.216 50.8261 973.24 49.7732 972.425 51.093C971.386 52.7772 959.461 52.2982 955.885 50.43C953.062 48.953 952.534 48.9664 951.938 50.5226C950.989 52.999 946.313 52.085 944.672 49.1017C943.935 47.7611 943.209 46.4498 943.059 46.189C942.91 45.927 940.507 45.5833 937.719 45.4261C934.536 45.247 932.239 44.4037 931.545 43.1606C930.171 40.7025 926.089 40.6306 920.515 42.9632C916.628 44.5901 916.085 44.5548 914.285 42.5622C913.201 41.3618 912.3 39.8738 912.283 39.256C912.267 38.6393 910.351 37.1854 908.025 36.0265C904.432 34.235 903.798 34.1899 903.798 35.7218C903.798 37.7265 902.774 37.9849 896.324 37.6022C893.885 37.4584 891.527 37.9301 891.083 38.6503C889.618 41.0231 885.968 40.0189 884.525 36.8466C883.747 35.1332 882.57 34.0644 881.911 34.4727C881.227 34.8955 881.024 34.402 881.438 33.3222C882.338 30.9738 882.069 30.9763 876.341 33.3746C872.092 35.1527 871.579 35.1527 870.281 33.3746C868.208 30.5339 865.988 30.9677 860.843 35.216L856.259 39.0013L854.037 36.4347C851.429 33.4234 849.568 33.1748 848.183 35.6535C847.635 36.6358 845.281 37.5949 842.953 37.7862C839.072 38.1043 838.737 37.8691 838.924 34.965L839.128 31.7952L834.713 34.051C832.285 35.2904 829.593 36.3055 828.732 36.3055C827.869 36.3055 827.164 37.2659 827.164 38.4382C827.163 40.1505 825.964 40.6221 821.082 40.8281C817.737 40.9694 815 40.5575 815 39.914C815 39.2694 814.469 38.7429 813.821 38.7429C813.174 38.7429 812.958 39.5655 813.343 40.5709C813.798 41.7579 813.312 42.3989 811.959 42.3989C810.605 42.3989 810.119 41.7579 810.574 40.5709C811.41 38.387 810.094 38.2579 806.012 40.1212C804.35 40.8805 801.997 41.0815 800.785 40.5697C797.279 39.0914 793.104 38.8063 793.104 40.0444C793.104 42.1881 790.835 41.1802 790.045 38.6844C789.597 37.2732 789.954 35.344 790.866 34.2436C792.29 32.5228 792.126 32.4082 789.445 33.2479C787.777 33.7695 786.14 34.597 785.806 35.0869C784.252 37.3597 779.665 37.5425 776.488 35.4561C772.084 32.5642 767.353 32.5374 765.304 35.3928C764.35 36.7223 762.87 37.3853 761.784 36.9673C760.752 36.5712 758.894 37.1672 757.652 38.2932C755.49 40.2541 754.753 39.596 755.213 36.1167C755.394 34.7493 751.863 33.9109 751.105 35.1405C749.941 37.0282 748.426 36.481 747.761 33.934C747.24 31.9378 746.114 31.582 740.625 31.6795C737.041 31.744 732.809 32.2742 731.222 32.8591C728.703 33.7865 728.419 33.6086 728.979 31.4577C730.028 27.4409 727.972 28.6035 722.242 35.266C717.628 40.6331 716.397 41.4264 713.73 40.7562C711.354 40.1578 710.765 39.3912 711.25 37.5291C712.13 34.1595 707.591 34.2326 704.186 37.6436C701.303 40.5319 695.552 42.5391 693.608 41.335C692.898 40.8951 692.414 39.4461 692.533 38.1153C692.705 36.1922 692.126 35.7827 689.709 36.1203C688.036 36.3531 685.965 37.1208 685.104 37.8277C683.13 39.4497 670.093 36.5919 668.651 34.2204C668.107 33.3283 667.15 32.9164 666.523 33.3052C665.894 33.6939 665.38 33.4307 665.38 32.7214C665.38 30.4632 661.735 31.3297 658.47 34.3618C656.062 36.598 653.919 37.3036 649.428 37.339C646.191 37.3633 643.222 36.8661 642.832 36.2324C642.386 35.5122 641.295 35.5231 639.917 36.2617C638.581 36.9782 636.251 37.0234 634 36.3762C631.958 35.7901 629.984 35.6146 629.612 35.9863C629.24 36.358 625.391 36.8613 621.058 37.1038C616.725 37.3463 611.751 38.0885 610.007 38.7526C605.913 40.3125 600.91 40.3065 600.91 38.7429C600.91 38.0726 600.089 37.5242 599.086 37.5242C598.082 37.5242 597.261 38.0726 597.261 38.7429C597.261 39.4132 596.619 39.9616 595.833 39.9616C595.047 39.9616 595.731 38.5028 597.353 36.7199C599.966 33.8475 600.025 33.5855 597.869 34.4203C594.993 35.5353 593.321 35.9253 587.225 36.9027C584.379 37.3597 582.664 38.3018 582.664 39.4071C582.664 41.8115 580.231 41.5946 576.702 38.8769C574.53 37.2025 573.973 35.8949 574.527 33.7695C574.999 31.961 574.55 30.1122 573.306 28.7339C570.989 26.1674 569.283 25.9187 569.283 28.1453C569.283 29.8843 561.897 37.5242 560.217 37.5242C559.643 37.5242 557.268 38.9805 554.939 40.7598C551.525 43.369 550.284 43.7334 548.536 42.639C546.43 41.3216 543.793 41.4435 538.592 43.0972C536.636 43.72 536.236 43.4726 536.803 41.9919C537.284 40.733 536.987 40.2955 535.927 40.7025C535.044 41.0425 533.972 40.4076 533.545 39.2925C532.984 37.8301 531.925 37.4779 529.739 38.0275C526.482 38.8465 525.811 37.6924 528.168 35.3306C530.637 32.8579 527.316 33.6488 523.887 36.3506C521.257 38.4236 520.343 38.5857 518.348 37.3377C516.442 36.1459 515.569 36.1666 514.035 37.4426C512.715 38.5394 512.112 38.6052 512.112 37.6497C512.112 36.7918 510.997 36.5395 509.203 36.9905C507.604 37.3926 505.93 37.1294 505.482 36.4043C505.036 35.6791 505.25 35.0869 505.958 35.0869C506.666 35.0869 507.246 34.5336 507.246 33.8584C507.246 33.1272 506.195 33.2503 504.654 34.1631C502.911 35.1941 501.907 35.2745 501.59 34.4068C501.084 33.0248 485.222 33.0505 482.985 34.4361C482.279 34.8736 481.701 34.6372 481.701 33.9121C481.701 33.1285 480.53 33.3624 478.813 34.4885C474.962 37.0173 465.278 38.0141 458.893 36.5395C455.641 35.7888 453.724 35.7766 453.724 36.5066C453.724 37.1452 453.168 37.3231 452.488 36.9027C451.808 36.481 451.493 35.7449 451.79 35.2648C452.508 34.0985 446.378 34.3496 443.66 35.5975C442.474 36.1423 439.35 36.0399 436.719 35.3708C433.281 34.497 431.776 34.5421 431.366 35.5354C430.983 36.464 430.338 36.3177 429.395 35.0869C428.349 33.722 427.838 33.6415 427.382 34.7664C427.045 35.5951 425.809 37.4621 424.634 38.916C422.728 41.2753 422.066 41.4081 418.477 40.1541C413.651 38.4687 390.369 41.4423 385.951 44.3074C382.392 46.6168 379.959 46.5169 379.004 44.0234C378.412 42.4745 377.889 42.3295 376.806 43.4141C374.818 45.4054 370.378 45.186 368.574 43.0083C367.741 42.0029 366.01 41.1803 364.727 41.1803C363.444 41.1803 360.911 40.1346 359.099 38.8562C354.499 35.6145 347.388 34.5506 345.171 36.7711C344.211 37.7338 342.767 38.114 341.963 37.6168C341.16 37.1196 335.285 36.8381 328.907 36.9905C319.917 37.2062 317.164 36.8868 316.659 35.5682C316.301 34.6335 315.005 33.8682 313.777 33.8682C312.55 33.8682 311.208 33.3198 310.795 32.6495C310.381 31.9792 307.694 31.4308 304.822 31.4308C301.951 31.4308 297.871 30.8264 295.756 30.0879C293.641 29.3493 290.958 29.1592 289.796 29.665C286.901 30.9275 283.383 30.3767 279.854 28.1075C276.152 25.7274 257.085 24.6891 254.627 26.7328C253.368 27.7809 252.441 27.6322 250.768 26.115C247.405 23.0658 244.719 23.6228 244.276 27.4592C243.86 31.0713 239.634 33.1041 239.634 29.6918C239.634 27.3032 236.766 27.1923 234.849 29.5065C233.648 30.9543 232.878 30.9787 230.138 29.6552C219.597 24.5636 217.78 23.9409 215.536 24.655C214.184 25.0852 212.698 24.8219 212.234 24.07C211.771 23.3181 210.169 23.0098 208.675 23.3851C206.688 23.8848 205.57 23.34 204.507 21.3512C203.383 19.2489 201.783 18.5519 197.428 18.2679C194.335 18.0668 190.832 17.3807 189.646 16.7446C186.034 14.8081 183.763 15.4369 182.973 18.5908C181.924 22.7807 177.703 23.9067 175.103 20.6894C173.358 18.5299 172.739 18.3959 170.77 19.7461C168.229 21.4901 160.567 21.8679 160.567 20.2495C160.567 18.9455 155.625 21.7034 153.636 24.1188C152.808 25.1242 152.112 26.9205 152.091 28.1099C152.069 29.2994 150.758 30.7654 149.177 31.3675C147.595 31.9695 145.971 33.3271 145.566 34.3837C145.161 35.4415 143.654 36.3055 142.217 36.3055C140.203 36.3055 139.751 36.8637 140.241 38.7429C140.635 40.2541 140.277 41.1803 139.302 41.1803C138.434 41.1803 137.376 43.0473 136.949 45.3274C136.522 47.6088 135.322 49.8024 134.282 50.2021C131.734 51.182 131.627 51.1551 131.042 49.4063C130.762 48.5691 130.781 49.4599 131.084 51.3867C131.466 53.8204 131.205 54.6259 130.233 54.0239C129.463 53.5474 128.106 53.7619 127.217 54.5016C126.327 55.2414 124.646 55.4802 123.48 55.0317C121.765 54.3724 121.513 54.6966 122.159 56.7367C122.99 59.3568 121.142 61.6077 119.862 59.5335C119.459 58.8815 118.314 58.6622 117.314 59.0461C115.984 59.5579 115.845 60.1648 116.797 61.3128C117.816 62.5449 117.236 62.8154 114.09 62.5741C111.887 62.4047 109 62.6546 107.672 63.1286C105.37 63.9512 105.387 64.0304 108.043 64.875C111.858 66.0888 110.858 68.018 104.842 71.0525C100.909 73.0365 100.09 73.942 101.214 75.068C102.338 76.1941 101.819 76.5219 98.913 76.5219C96.2575 76.5219 94.5801 77.4079 93.1776 79.554C92.0877 81.2211 88.4834 83.8254 85.1687 85.3427C81.0657 87.2194 78.774 89.1376 77.9857 91.3532C77.2632 93.3847 75.7646 94.7582 73.9947 95.0092C71.9207 95.3029 70.9974 96.3924 70.5522 99.0674C69.8138 103.505 64.8436 109.426 61.856 109.426C60.4742 109.426 59.9232 110.059 60.3452 111.16C60.7284 112.161 59.9146 113.482 58.4245 114.281C56.5744 115.273 56.0598 116.365 56.6145 118.119C57.3687 120.499 57.2787 120.512 53.5187 118.565C51.39 117.461 49.4632 116.743 49.2381 116.967C49.0143 117.193 48.4913 120.346 48.0777 123.974C47.4962 129.065 46.5815 131.209 44.0647 133.376C40.8765 136.12 40.778 136.129 39.5336 133.799C38.2819 131.456 38.2356 131.455 36.8039 133.752C36.0035 135.037 33.387 137.021 30.9895 138.16C28.0567 139.556 26.8561 140.821 27.3195 142.032C27.8937 143.531 27.0422 143.69 22.2154 142.987C16.8595 142.207 16.6053 142.284 18.8545 143.996C21.1207 145.722 21.1596 146.084 19.4201 149.27C18.1258 151.64 16.2611 152.921 13.338 153.442C11.0195 153.857 9.60118 154.269 10.1838 154.356C10.7677 154.445 10.5646 155.34 9.73134 156.345C8.89809 157.351 8.59764 158.173 9.06231 158.173C9.52698 158.173 8.80443 159.58 7.4542 161.298C6.07114 163.06 5.32912 165.277 5.75244 166.383C6.3278 167.884 5.99207 168.149 4.33288 167.511C2.71626 166.889 2.3416 167.146 2.86709 168.519C3.29892 169.646 2.88048 170.36 1.78692 170.36C0.804054 170.36 0 171.183 0 172.188C0 173.307 1.13613 174.016 2.9267 174.016C5.25857 174.016 5.72446 174.514 5.216 176.46C4.54697 179.026 6.90074 182.937 8.51492 181.937C9.0319 181.617 10.1315 182.171 10.9587 183.17C12.2226 184.695 11.9744 184.984 9.40169 184.984C6.27793 184.984 4.80485 186.828 5.75487 189.554C6.04559 190.391 7.35081 191.078 8.65481 191.078C9.95759 191.078 11.3394 191.9 11.7238 192.906C12.1094 193.911 13.1872 194.734 14.119 194.734C16.4606 194.734 16.2562 198.296 13.8623 199.216C12.3722 199.789 12.7991 200.339 15.6735 201.551C17.9604 202.514 19.1914 203.773 18.8131 204.761C18.4299 205.761 19.8386 207.136 22.4757 208.333C24.8332 209.404 26.7612 209.787 26.7612 209.186C26.7612 208.195 29.5151 208.507 35.6836 210.195C37.3306 210.646 37.7284 211.55 37.2029 213.649C36.6798 215.736 37.2722 217.107 39.4314 218.81C41.0492 220.084 42.5551 222.729 42.7777 224.687C43.0867 227.405 43.7278 228.153 45.4867 227.849C46.753 227.629 48.2419 228.178 48.7941 229.067C49.5982 230.36 50.2794 230.386 52.1989 229.194C54.1269 227.997 55.4528 228.061 58.9269 229.516C64.1964 231.722 65.1319 236.16 60.2127 235.619C55.8907 235.144 56.4345 237.031 60.9036 238.015C62.9557 238.466 64.9105 239.558 65.2486 240.439C65.5868 241.321 67.1912 242.377 68.8152 242.785C71.5034 243.46 72.2552 244.948 72.0958 249.269C72.0642 250.108 73.114 250.793 74.4277 250.793C76.3813 250.793 76.7571 251.517 76.4871 254.753C76.3059 256.932 75.424 259.601 74.5275 260.686C73.0824 262.435 73.2818 262.598 76.2864 262.128L79.6753 261.598L76.8034 264.116C73.991 266.583 73.9849 266.636 76.4993 266.636C77.9115 266.636 79.0671 267.184 79.0671 267.854C79.0671 268.524 80.1619 269.073 81.5 269.073C82.838 269.073 83.9328 269.621 83.9328 270.292C83.9328 270.962 82.7748 271.51 81.3601 271.51C78.9053 271.51 78.8774 271.648 80.7519 274.514C81.832 276.166 82.7164 278.341 82.7164 279.346C82.7164 280.352 83.8111 281.761 85.1492 282.478C86.6162 283.264 87.582 285.03 87.582 286.925C87.582 289.809 87.908 290.006 91.5354 289.331C98.2245 288.087 100.123 287.565 107.045 285.068C110.724 283.741 116.709 282.315 120.344 281.898C125.559 281.301 127.925 280.26 131.568 276.963C136.769 272.256 143.489 269.075 148.247 269.068C150.005 269.066 153.36 267.882 155.701 266.438C158.043 264.995 164.861 262.82 170.852 261.605C180.128 259.724 182.022 259.646 183.624 261.076C185.861 263.073 190.985 263.889 193.081 262.581C193.903 262.068 195.703 262.252 197.08 262.99C198.457 263.729 200.581 264.017 201.8 263.629C204.522 262.763 208.24 264.053 207.32 265.545C206.95 266.144 208.003 266.636 209.659 266.636C211.315 266.636 212.879 267.263 213.133 268.028C213.479 269.067 214.28 269.056 216.277 267.986C218.452 266.819 218.955 266.874 218.955 268.278C218.955 269.229 220.12 270.312 221.546 270.686C223.277 271.14 223.895 271.996 223.408 273.265C222.971 274.411 223.335 275.166 224.328 275.166C228.309 275.166 236.756 281.091 237.377 284.319C237.655 285.769 238.814 286.744 240.259 286.744C241.588 286.744 243.089 287.761 243.595 289.004C244.19 290.464 245.22 290.993 246.508 290.497C247.637 290.063 249.57 290.669 250.964 291.894C253.325 293.967 253.394 293.964 252.627 291.86C252.186 290.652 252.32 289.97 252.922 290.342C253.526 290.717 254.372 293.114 254.803 295.669L255.588 300.317L261.903 300.131C265.377 300.028 268.581 300.492 269.022 301.159C269.511 301.898 270.614 301.581 271.846 300.347C274.39 297.798 275.708 297.79 277.117 300.31C277.808 301.547 280.205 302.449 283.461 302.696C286.337 302.914 289.082 303.724 289.556 304.494C290.181 305.508 290.65 305.521 291.252 304.545C291.709 303.803 293.487 303.196 295.201 303.196C297.991 303.196 298.144 303.419 296.65 305.308C295.068 307.31 295.151 307.31 298.284 305.308C300.1 304.146 302.798 303.196 304.28 303.196C308.432 303.196 315.052 305.944 315.052 307.668C315.052 308.518 315.78 308.933 316.669 308.591C317.558 308.25 318.929 309.227 319.716 310.763C321.106 313.474 321.128 313.478 320.47 310.875C319.389 306.595 323.252 303.705 329.889 303.833C332.987 303.893 336.336 304.619 337.332 305.448C338.776 306.647 339.272 306.634 339.775 305.38C340.175 304.378 340.44 304.581 340.501 305.938C340.598 308.103 342.334 308.626 348.008 308.202C350.379 308.024 352.416 309.37 356.219 313.626C359 316.74 361.276 320.274 361.276 321.481C361.276 322.809 362.677 324.164 364.828 324.915C366.781 325.598 369.539 327.317 370.955 328.736C372.371 330.154 373.975 331.038 374.522 330.7C375.068 330.361 376.553 330.872 377.823 331.835C379.092 332.797 381.107 333.603 382.302 333.624C385.159 333.675 390.624 337.301 389.817 338.609C388.954 340.007 393.293 342.193 396.932 342.193C398.566 342.193 400.584 343.016 401.418 344.022C403.861 346.972 406.14 346.138 407.238 341.889C407.801 339.71 408.502 337.977 408.794 338.035C409.086 338.094 412.199 338.524 415.711 338.991C419.222 339.458 422.097 340.369 422.097 341.016C422.097 341.663 423.133 342.193 424.4 342.193C425.666 342.193 427.017 343.016 427.403 344.022C427.797 345.051 429.607 345.85 431.547 345.85C433.441 345.85 435.728 346.536 436.629 347.373C437.96 348.611 438.081 348.554 437.272 347.068C436.55 345.743 436.946 345.828 438.709 347.373C441.798 350.08 442.35 350.049 443.114 347.124C443.483 345.713 445.152 344.463 447.209 344.057C449.12 343.68 452.709 342.916 455.186 342.359C458.01 341.723 460.152 341.81 460.935 342.593C461.786 343.446 462.897 343.194 464.434 341.799C465.674 340.675 467.329 339.756 468.113 339.756C468.896 339.756 469.537 339.161 469.537 338.436C469.537 337.71 470.222 337.368 471.058 337.675C471.895 337.982 474.22 337.248 476.227 336.043C478.234 334.839 481.655 333.98 483.83 334.133C486.005 334.287 487.783 333.932 487.783 333.346C487.783 332.76 488.814 332.607 490.073 333.007C491.461 333.449 492.619 333.064 493.015 332.027C493.773 330.048 497.263 330.333 504.205 332.945C510.572 335.338 513.328 335.332 513.328 332.923C513.328 331.682 513.997 331.222 515.153 331.667C516.156 332.052 516.977 331.882 516.977 331.289C516.977 329.213 523.593 327.984 529.12 329.033C533.931 329.946 534.821 329.772 536.266 327.632C537.565 325.708 538.409 325.45 540.219 326.42C541.486 327.1 542.581 327.224 542.651 326.698C542.723 326.172 542.859 324.645 542.955 323.304C543.194 319.977 549.777 319.676 552.032 322.89C552.915 324.145 554.122 324.872 554.715 324.504C555.308 324.138 558.573 326.607 561.969 329.991C566.852 334.857 568.584 335.909 570.247 335.017C573.705 333.163 579.067 334.861 580.338 338.211C581.046 340.077 582.135 340.971 583.198 340.563C585.695 339.603 593.91 342.135 595.54 344.369C596.789 346.081 597.274 346.015 600.154 343.746C603.231 341.322 607.456 341.205 608.875 343.506C609.221 344.067 610.194 344.259 611.039 343.934C611.883 343.61 615.006 344.203 617.978 345.254C620.951 346.304 623.526 346.731 623.701 346.202C623.877 345.673 630.18 345.417 637.706 345.634C645.233 345.851 652.486 346.034 653.824 346.041C658.079 346.065 665.92 345.01 667.908 344.147C668.963 343.688 671.355 343.895 673.225 344.608C675.525 345.484 677.104 345.503 678.109 344.667C678.925 343.989 679.975 343.816 680.442 344.284C680.908 344.752 684.355 345.291 688.103 345.484C691.849 345.676 695.659 346.453 696.569 347.21C697.811 348.243 698.224 348.213 698.224 347.086C698.224 346.263 699.028 345.898 700.009 346.275C700.991 346.653 702.118 346.437 702.514 345.796C703.66 343.94 706.942 344.444 708.613 346.734C709.457 347.891 711.434 348.85 713.005 348.867C714.576 348.883 715.77 349.445 715.66 350.115C715.549 350.785 717.191 351.402 719.309 351.486C734.435 352.082 735.895 352.343 736.602 354.573C736.996 355.816 738.454 356.818 739.872 356.818C741.28 356.818 743.382 357.68 744.545 358.733C746.234 360.267 747.536 360.407 751.04 359.438C753.45 358.771 755.13 358.698 754.774 359.276C754.417 359.853 755.096 360.259 756.281 360.178C762.426 359.752 765.686 362.043 765.372 366.567C765.349 366.902 766.621 367.253 768.199 367.348C769.777 367.442 772.689 368.675 774.671 370.09C778.382 372.737 784.435 373.495 786.475 371.568C787.809 370.308 793.104 372.008 793.104 373.698C793.104 375.483 798.396 376.38 799.392 374.764C800.078 373.651 801.165 373.633 803.951 374.686C806.909 375.806 807.891 375.728 809.09 374.28C809.905 373.297 811.602 372.76 812.86 373.091C814.186 373.438 815.434 372.946 815.827 371.921C816.231 370.864 817.386 370.431 818.69 370.846C819.893 371.228 821.229 370.97 821.659 370.273C823.012 368.081 824.654 368.885 825.47 372.14C826.778 377.362 834.636 378.654 840.738 374.649C842.511 373.484 845.246 372.646 846.815 372.786C852.58 373.299 854.868 372.624 855.494 370.223C856.012 368.237 857.22 367.759 862.021 367.642C865.262 367.561 868.382 367.581 868.954 367.685C869.527 367.787 870.758 367.236 871.691 366.461C872.966 365.401 873.805 365.397 875.064 366.444C876.384 367.541 876.882 367.291 877.411 365.264C877.921 363.31 878.689 362.885 880.607 363.495C882.287 364.03 883.365 363.689 883.828 362.477C884.327 361.174 885.793 360.808 888.992 361.187C891.449 361.477 892.788 361.394 891.97 361.003C889.807 359.97 893.439 354.802 896.948 353.92C898.463 353.539 900.384 351.978 901.217 350.452C902.976 347.229 907.953 343.301 910.811 342.881C911.898 342.721 913.298 341.061 913.92 339.193C915.428 334.658 919.119 331.112 921.413 331.994C922.76 332.512 923.48 331.653 924.036 328.868C924.613 325.973 925.838 324.595 929.016 323.265C932.968 321.61 933.362 321.664 935.339 324.11C937.066 326.246 938.09 326.532 940.997 325.69C942.951 325.126 945.369 324.598 946.373 324.518C947.376 324.437 949.018 323.996 950.022 323.537C951.025 323.077 956.226 323.759 961.578 325.05C967.401 326.454 971.478 326.922 971.731 326.214C971.976 325.529 972.945 325.688 974.032 326.591C975.064 327.45 977.575 328.236 979.611 328.338C981.648 328.442 984.034 329.512 984.915 330.717C986.63 333.068 986.747 332.827 986.974 326.464C987.149 321.58 989.468 320.168 990.746 324.168C991.525 326.608 991.712 326.68 992.223 324.738C992.573 323.412 993.515 322.787 994.559 323.188C995.533 323.562 997.451 322.544 998.889 320.886L1001.47 317.911L1005.24 320.546C1007.32 321.995 1009.44 323.866 1009.95 324.702C1010.63 325.793 1012.07 325.042 1015.07 322.037C1017.66 319.436 1019.95 318.126 1021.12 318.573C1022.15 318.969 1022.71 319.747 1022.37 320.301C1021.12 322.328 1024.44 322.876 1026.52 320.986C1027.71 319.915 1029.59 319.039 1030.71 319.039C1031.82 319.039 1032.74 318.183 1032.74 317.139C1032.74 316.094 1033.29 315.578 1033.95 315.992C1034.62 316.406 1035.19 317.947 1035.21 319.415C1035.25 321.961 1035.39 321.926 1038.27 318.64C1039.94 316.745 1041.97 315.418 1042.79 315.692C1043.61 315.965 1044.87 315.047 1045.6 313.653C1046.33 312.258 1047.55 311.249 1048.31 311.41C1049.07 311.571 1051.7 310.337 1054.16 308.668C1058.96 305.402 1060.72 304.919 1060.72 306.862C1060.72 307.59 1061.71 307.471 1063.15 306.569C1064.49 305.732 1065.58 304.415 1065.58 303.642C1065.58 302.26 1068.23 300.758 1070.68 300.758C1071.36 300.758 1071.6 301.609 1071.2 302.65C1070.76 303.8 1070.98 304.229 1071.76 303.745C1072.47 303.308 1073.33 304.06 1073.69 305.415C1074.46 308.39 1079.01 308.291 1082.39 305.227C1085.35 302.543 1086.89 302.664 1089.82 305.817C1091.53 307.654 1092.73 308.085 1093.82 307.258C1096.3 305.383 1101.68 305.513 1103.31 307.486C1104.82 309.312 1107.53 310.058 1106.55 308.375C1106.25 307.872 1106.5 306.169 1107.09 304.591C1107.81 302.674 1108.8 301.965 1110.08 302.455C1111.16 302.872 1113.71 301.866 1116 300.116C1119.28 297.608 1120.58 297.261 1123.09 298.217C1124.78 298.862 1126.53 299.971 1126.96 300.683C1128.55 303.251 1129.99 301.899 1129.57 298.249C1129.27 295.635 1129.59 294.696 1130.66 295.107C1131.5 295.429 1132.78 295.104 1133.49 294.385C1134.43 293.451 1135.21 293.972 1136.22 296.195C1137.49 298.999 1137.99 299.189 1141.18 298.075C1144.06 297.072 1144.46 296.51 1143.3 295.112C1142.51 294.164 1142.27 292.989 1142.76 292.503C1143.24 292.017 1144.59 292.792 1145.75 294.226C1147.34 296.182 1148.38 296.544 1149.93 295.675C1151.07 295.038 1153.08 294.861 1154.4 295.282C1156.1 295.823 1156.81 295.486 1156.81 294.137C1156.81 293.087 1157.7 292.228 1158.79 292.228C1160.38 292.228 1160.47 292.573 1159.29 294.002C1157.67 295.958 1158.61 298.487 1160.86 298.209C1163.97 297.824 1165 298.454 1166.51 301.672C1167.37 303.516 1168.29 304.445 1168.55 303.737C1169.16 302.064 1175.84 302.537 1178.1 304.413C1179.06 305.214 1181.77 306.048 1184.11 306.266C1186.45 306.484 1188.89 306.987 1189.53 307.386C1190.18 307.784 1191.05 307.544 1191.48 306.852C1191.91 306.16 1192.77 305.909 1193.39 306.295C1195.45 307.572 1197.2 305.566 1195.65 303.697C1194.5 302.306 1194.73 301.977 1196.88 301.977C1198.34 301.977 1199.19 302.526 1198.78 303.196C1198.37 303.866 1198.52 304.414 1199.12 304.414C1199.72 304.414 1200.84 305.786 1201.6 307.461C1202.36 309.137 1203.82 310.508 1204.84 310.508C1207.06 310.508 1207.32 307.31 1205.17 306.44C1203.95 305.949 1203.95 305.806 1205.17 305.729C1206 305.677 1206.69 304.847 1206.69 303.887C1206.69 302.098 1210.8 300.155 1212.45 301.161C1213.99 302.097 1216.02 299.039 1215.8 296.102C1215.67 294.28 1216.14 293.546 1217.19 293.948C1218.06 294.284 1219.03 294.135 1219.35 293.618C1219.67 293.102 1223.33 292.719 1227.49 292.769C1233.72 292.843 1235.14 292.484 1235.6 290.715C1236.23 288.308 1239.7 287.715 1239.23 290.095C1239.06 290.934 1239.84 291.467 1240.96 291.281C1242.08 291.096 1243.34 291.508 1243.77 292.195C1244.19 292.883 1245.91 293.446 1247.59 293.446C1250.74 293.446 1254.13 295.928 1254.13 298.235C1254.13 298.952 1254.86 299.54 1255.75 299.54C1256.76 299.54 1257.37 301.001 1257.37 303.432C1257.37 305.573 1258.01 307.539 1258.79 307.8C1259.57 308.061 1260.21 309.05 1260.21 310C1260.21 310.95 1261.03 311.727 1262.03 311.727C1263.04 311.727 1263.86 312.212 1263.86 312.803C1263.86 314.366 1268.59 315.366 1269.44 313.984C1269.87 313.291 1271.36 313.6 1273.09 314.735C1275.53 316.333 1276.02 316.366 1276.02 314.932C1276.02 312.709 1279.15 311.337 1284.67 311.132C1287.95 311.01 1289.02 311.448 1288.92 312.871C1288.85 314.023 1289.99 314.939 1291.84 315.194C1293.51 315.426 1295.59 316.203 1296.46 316.918C1297.66 317.905 1298.21 317.554 1298.76 315.47C1299.33 313.291 1300.16 312.82 1302.78 313.205C1305.38 313.587 1306.37 313.035 1307.48 310.575C1311.1 302.573 1314.04 298.951 1318.91 296.519C1323.56 294.195 1323.46 294.182 1323.46 297.102C1323.46 298.978 1324.27 299.54 1326.98 299.54C1329.1 299.54 1330.8 298.756 1331.25 297.574C1331.85 296.014 1332.37 295.909 1333.76 297.066C1334.72 297.867 1336.55 298.191 1337.83 297.785C1339.22 297.344 1340.79 297.818 1341.73 298.963C1342.61 300.017 1345.63 301.933 1348.45 303.221C1351.28 304.51 1353.89 306.362 1354.27 307.338C1354.64 308.314 1356.48 309.29 1358.36 309.506C1361.03 309.813 1361.72 310.471 1361.51 312.524C1361.24 315.155 1362.25 315.899 1368.76 317.857C1370.85 318.487 1372.38 318.381 1372.88 317.574C1373.38 316.765 1374.08 317.024 1374.78 318.273C1375.98 320.422 1380.63 321.031 1380.63 319.039C1380.63 318.368 1381.18 317.82 1381.85 317.82C1382.52 317.82 1383.07 318.917 1383.07 320.257C1383.07 323.28 1387.33 323.601 1388.45 320.663C1389.06 319.074 1389.55 318.952 1390.7 320.104C1391.85 321.257 1391.8 321.804 1390.5 322.614C1389.17 323.436 1389.36 323.941 1391.42 325.044C1392.85 325.81 1394.01 327.24 1394.01 328.221C1394.01 329.204 1394.84 330.007 1395.84 330.007C1396.84 330.007 1397.66 329.184 1397.66 328.179C1397.66 327.173 1397.12 326.351 1396.45 326.351C1395.78 326.351 1395.23 325.853 1395.23 325.247C1395.23 324.638 1396.33 324.429 1397.66 324.779C1399 325.13 1400.1 325.767 1400.1 326.196C1400.1 327.55 1407.39 330.27 1409.18 329.583C1410.12 329.221 1412.91 329.912 1415.39 331.117C1419.32 333.035 1420.31 333.101 1423.22 331.646C1425.05 330.731 1427.98 328.553 1429.72 326.806C1431.58 324.947 1433.65 323.927 1434.74 324.344C1436.41 324.987 1437.32 322.438 1436.73 318.734C1436.65 318.231 1437.36 317.82 1438.31 317.82C1439.26 317.82 1440.26 317.146 1440.53 316.322C1440.9 315.216 1441.84 315.358 1444.15 316.868C1447.59 319.129 1449.91 318.323 1446.7 315.979C1444.87 314.631 1444.94 314.157 1447.55 310.374C1449.11 308.102 1450.5 306.09 1450.62 305.904C1450.75 305.717 1452.29 306.115 1454.06 306.787C1456.12 307.573 1457.27 307.585 1457.27 306.821C1457.27 306.168 1456.48 305.633 1455.52 305.633C1452.96 305.633 1451.97 303.359 1453.64 301.337C1454.9 299.826 1455.43 299.821 1457.54 301.302C1459.69 302.806 1460.27 302.757 1462.25 300.912C1463.49 299.752 1464.73 297.461 1465.01 295.82C1465.3 294.05 1466.18 293.014 1467.17 293.272C1472.04 294.551 1477.72 294.799 1478.36 293.762C1478.79 293.069 1477.85 292.818 1476.09 293.155C1473.65 293.622 1473.08 293.238 1473.08 291.129C1473.08 288.963 1473.59 288.653 1476.11 289.287C1478.26 289.828 1479.36 289.484 1479.89 288.099C1480.3 287.026 1481.12 286.451 1481.72 286.823C1482.32 287.193 1482.81 286.842 1482.81 286.043C1482.81 284.992 1485.25 284.762 1491.57 285.215C1499.71 285.799 1500.07 285.725 1496.74 284.153L1493.15 282.464L1498.47 282.984C1502.16 283.345 1503.4 283.116 1502.52 282.233C1500.75 280.459 1502.1 277.604 1504.71 277.604C1506.56 277.604 1506.74 276.977 1505.95 273.437L1505.01 269.272L1510.7 269.559C1517.44 269.902 1519.08 270.756 1520.58 274.697C1521.9 278.184 1524.92 279.504 1534.29 280.675C1540.79 281.489 1541.2 281.386 1541.2 278.962C1541.2 275.321 1543.46 275.761 1544.95 279.695C1545.87 282.114 1546.47 282.571 1547.2 281.392C1547.79 280.439 1549.18 280.093 1550.61 280.548C1554.31 281.723 1557.42 280.175 1555.66 278.041C1553.29 275.188 1555.41 274.775 1558.18 277.549C1560.23 279.608 1561.62 279.972 1565 279.335C1568.38 278.7 1569.11 278.087 1568.56 276.345C1567.66 273.5 1569.7 272.249 1571.57 274.502C1572.7 275.877 1573.65 275.96 1575.98 274.893C1578.46 273.76 1579.24 273.922 1580.72 275.875C1581.9 277.441 1582.49 277.663 1582.52 276.547C1582.55 275.434 1583.57 275.075 1585.59 275.464C1587.32 275.794 1589.22 275.33 1590 274.386C1591.06 273.104 1590.92 272.729 1589.4 272.729C1588.31 272.729 1587.42 272.25 1587.42 271.665C1587.42 271.08 1589.98 270.549 1593.11 270.487C1596.23 270.423 1599.1 269.943 1599.49 269.418C1600.72 267.754 1604.45 268.055 1604.45 269.818C1604.45 270.76 1605.67 271.51 1607.19 271.511C1609.68 271.513 1609.91 270.978 1609.72 265.723C1609.4 257.086 1613.88 252.147 1618.64 255.893C1619.51 256.578 1620.35 256.514 1620.84 255.727C1621.27 255.024 1620.96 254.449 1620.14 254.449C1619.32 254.449 1618.93 254.159 1619.29 253.805C1620.32 252.775 1626.03 255.347 1628.73 258.056C1632.26 261.593 1634.3 261.151 1636.57 256.358C1638.6 252.067 1638.33 252.17 1648.58 251.918C1649.76 251.888 1650.44 251.386 1650.08 250.804C1649.72 250.22 1649.88 249.458 1650.44 249.111C1652 248.146 1655.81 253.222 1655.04 255.236C1654.66 256.213 1654.81 256.733 1655.36 256.389C1657 255.377 1668.92 259.656 1668.92 261.254C1668.92 262.059 1669.79 263.051 1670.85 263.458C1673.82 264.603 1674.22 264.354 1672.57 262.37C1671.53 261.108 1671.48 260.542 1672.43 260.542C1673.18 260.542 1673.81 259.582 1673.83 258.409C1673.86 257.237 1674.67 254.906 1675.63 253.23L1677.39 250.183L1678.16 252.897C1678.89 255.502 1682.24 256.142 1684.3 254.073C1684.76 253.61 1686.28 253.222 1687.68 253.212C1689.07 253.202 1691.58 252.412 1693.25 251.457C1700.09 247.552 1704.19 246.143 1706.76 246.817C1708.93 247.384 1709.32 247.12 1708.71 245.519C1707.87 243.327 1712.55 237.387 1715.12 237.387C1716.14 237.387 1716.37 236.361 1715.84 234.243C1715.17 231.545 1715.38 231.205 1717.38 231.84C1719.1 232.387 1719.9 231.874 1720.42 229.873C1721.09 227.309 1721.25 227.275 1723.4 229.229C1726.51 232.043 1728.62 231.796 1732 228.226C1733.58 226.562 1735.43 225.201 1736.13 225.201C1736.82 225.201 1738.01 224.347 1738.77 223.304C1739.95 221.692 1741.92 220.874 1745.73 220.42C1746.16 220.367 1746.92 218.818 1747.43 216.974L1748.34 213.623L1749.22 216.67C1750.04 219.543 1750.15 219.578 1751.08 217.279C1752.95 212.67 1756.46 212.403 1764.15 216.286C1767.45 217.949 1767.5 217.925 1765.98 215.425C1764.61 213.182 1764.76 212.569 1767.15 210.607C1768.65 209.37 1769.89 207.76 1769.89 207.03C1769.89 206.299 1770.43 205.702 1771.1 205.702C1771.77 205.702 1772.32 206.524 1772.32 207.53C1772.32 208.535 1771.77 209.358 1771.1 209.358C1770.43 209.358 1769.91 210.318 1769.93 211.49C1769.96 213.013 1771.17 212.229 1774.14 208.754C1777.48 204.844 1778.59 204.188 1779.82 205.419C1781.05 206.651 1782.11 206.098 1785.21 202.611C1788.34 199.087 1789.64 198.416 1792.14 199.045C1794.05 199.525 1795.51 200.959 1795.97 202.817C1797.1 207.304 1806.37 216.225 1810.94 217.221C1814.11 217.912 1814.76 217.734 1814.22 216.314C1813.45 214.321 1816.86 212.481 1817.97 214.286C1819.32 216.469 1820.78 215.458 1821.58 211.795C1822.58 207.24 1824.06 207.129 1825.65 211.49C1826.32 213.334 1826.91 214.157 1826.96 213.318C1827.14 210.529 1829.49 211.749 1829.49 214.63C1829.49 216.188 1830.95 218.793 1832.73 220.418C1835.18 222.655 1835.78 222.855 1835.2 221.24C1834.78 220.067 1834.96 219.107 1835.61 219.107C1836.26 219.107 1836.81 219.793 1836.83 220.63C1836.85 221.469 1837.67 223.221 1838.66 224.525C1840.05 226.367 1840.77 226.571 1841.9 225.439C1843.62 223.719 1846.93 223.558 1849.88 225.052C1856.04 228.168 1861.59 230.14 1860.21 228.714C1858.14 226.592 1858.28 224.785 1860.45 225.617C1861.6 226.058 1861.99 225.71 1861.57 224.62C1861.21 223.677 1862.28 222.056 1864.02 220.912C1867.53 218.61 1874.66 219.191 1881.59 222.346C1885.64 224.189 1888.73 223.575 1885.49 221.571C1882.79 219.9 1886.21 216.542 1889.84 217.291C1891.44 217.619 1894.16 218.185 1895.88 218.545C1898.61 219.116 1898.92 218.873 1898.23 216.717C1897.8 215.351 1897.78 214.232 1898.18 214.232C1899.98 214.232 1907.02 217.739 1908.8 219.526C1909.89 220.613 1913.27 221.711 1916.33 221.966C1921.09 222.365 1921.99 222.072 1922.68 219.911C1924.45 214.304 1929.43 212.196 1934.57 214.871C1937.25 216.265 1938.48 216.364 1939.77 215.29C1940.7 214.518 1941.81 214.238 1942.24 214.671C1942.68 215.103 1944.05 214.53 1945.3 213.396C1947.23 211.65 1948.18 211.557 1951.57 212.785C1956.66 214.628 1957.22 214.603 1957.22 212.532C1957.22 208.587 1970.29 214.738 1979.62 223.068C1980.93 224.24 1982.74 225.201 1983.65 225.201C1984.56 225.201 1985.14 226.104 1984.94 227.206C1984.39 230.315 1986.9 230.415 1988.25 227.338C1989.3 224.929 1990.34 224.591 1996.72 224.591C2002.59 224.591 2004.08 224.191 2004.4 222.529C2004.72 220.908 2006.13 220.477 2010.97 220.515C2014.36 220.54 2017.53 219.933 2018 219.164C2018.48 218.395 2019.99 217.681 2021.36 217.578C2022.85 217.466 2023.61 216.759 2023.25 215.822C2022.92 214.959 2023.53 213.916 2024.6 213.502C2027.2 212.503 2027.09 210.596 2024.42 210.5C2021.17 210.381 2027.53 207.988 2032.63 207.409C2034.97 207.143 2038.81 206.685 2041.15 206.391C2043.49 206.098 2046.35 205.822 2047.5 205.78C2048.84 205.73 2049.34 205.05 2048.89 203.874C2047.93 201.372 2049.65 201.567 2051.56 204.176C2053.01 206.172 2053.26 206.133 2055.5 203.548C2056.98 201.837 2058.63 201.079 2059.86 201.548C2060.94 201.966 2061.83 201.701 2061.83 200.957C2061.83 200.215 2062.71 199.608 2063.78 199.608C2065.01 199.608 2065.48 198.937 2065.04 197.792C2064.56 196.548 2065.39 195.721 2067.65 195.16C2069.46 194.712 2071.86 193.304 2072.98 192.032C2075.36 189.314 2086.33 188.691 2089.24 191.109C2090.52 192.18 2091.02 192.206 2091.02 191.201C2091.02 190.434 2092.53 189.164 2094.37 188.378C2096.21 187.593 2098.65 186.167 2099.8 185.21C2100.94 184.253 2102.67 183.773 2103.63 184.143C2104.69 184.552 2105.62 183.896 2105.99 182.469C2106.33 181.178 2107.61 179.76 2108.85 179.317C2110.08 178.875 2111.86 177.912 2112.8 177.178C2114.84 175.586 2120.22 175.292 2120.22 176.774C2120.22 177.347 2120.78 177.464 2121.48 177.032C2122.18 176.601 2122.41 175.198 2122.01 173.915C2121.46 172.172 2122.06 171.279 2124.39 170.392C2126.11 169.737 2127.51 168.639 2127.51 167.953C2127.51 167.266 2128.47 165.696 2129.64 164.464C2130.81 163.232 2132.32 161.308 2132.99 160.186C2133.87 158.707 2136.5 157.984 2142.6 157.548C2147.22 157.218 2151.71 156.354 2152.58 155.627C2153.45 154.901 2154.76 154.676 2155.49 155.127C2156.22 155.577 2157.48 155.391 2158.3 154.713C2159.11 154.035 2161.96 153.302 2164.63 153.085C2168.46 152.772 2169.41 152.241 2169.12 150.557C2168.93 149.384 2169.37 148.424 2170.11 148.424C2170.85 148.424 2171.16 148.898 2170.8 149.478C2170.44 150.058 2173.25 150.898 2177.05 151.345C2183.55 152.11 2184.16 151.951 2187.48 148.627L2191 145.097L2188.81 140.972C2187.6 138.702 2186.74 136.403 2186.89 135.859C2187.28 134.459 2175.89 124.05 2173.97 124.05C2173.1 124.05 2172.71 123.518 2173.11 122.867C2173.51 122.217 2172.97 120.007 2171.91 117.957C2170.85 115.907 2170.29 113.735 2170.67 113.131C2171.04 112.526 2170.81 111.703 2170.16 111.299C2169.51 110.896 2169.25 109.871 2169.57 109.02C2169.92 108.101 2168.46 106.805 2165.98 105.827C2163.33 104.789 2162.02 103.577 2162.42 102.538C2163.16 100.604 2161.38 100.354 2159.6 102.143C2158.27 103.473 2149.85 104.182 2148.73 103.059C2148.36 102.691 2147.99 101.094 2147.91 99.5098C2147.72 95.7709 2146.01 93.5834 2143.28 93.5834C2142.08 93.5834 2140.9 92.9899 2140.66 92.2635C2140.16 90.7755 2119.97 88.7989 2113.12 89.5666C2106.86 90.2698 2100.75 88.9378 2100.75 86.8684C2100.75 85.9167 2099.8 84.6273 2098.62 84.0021C2095.13 82.1363 2084.31 81.6001 2078.24 82.9918C2074.13 83.9339 2070.73 83.9083 2065.92 82.8968C2061.44 81.9559 2058.26 81.8902 2056.15 82.6933C2054.19 83.4403 2052.5 83.4574 2051.64 82.7396C2050.88 82.1095 2046.84 81.7378 2042.66 81.9145C2037.33 82.1388 2035.07 81.7914 2035.07 80.7531C2035.07 78.4644 2026.3 77.3104 2008.21 77.2165C1995.38 77.1507 1990.77 76.6767 1987.53 75.0948C1981.21 72.0031 1969.55 69.7716 1962.08 70.2238C1944.79 71.2718 1935.32 70.2421 1935.32 67.316C1935.32 66.4252 1934.64 65.3027 1933.8 64.8214C1932.96 64.3388 1932.69 64.3948 1933.18 64.9445C1933.68 65.4941 1933.07 66.6567 1931.83 67.5268C1930.15 68.7089 1928.46 68.7991 1925.15 67.8827C1921.59 66.8992 1920.72 66.0705 1920.72 63.6685C1920.72 60.3464 1919.95 60.1063 1915.16 61.9307C1912.37 62.9946 1911.6 62.7898 1910.05 60.5767C1908.47 58.31 1907.47 58.0723 1902.39 58.7475C1897.6 59.3836 1896.34 59.1448 1895.37 57.4167C1894.41 55.6947 1893.86 55.5887 1892.36 56.8354C1891.33 57.6946 1890.23 57.8737 1889.84 57.2461C1889.46 56.6331 1887.68 56.4125 1885.88 56.7574C1883.43 57.2278 1882.78 56.9597 1883.26 55.6801C1883.78 54.3054 1881.59 53.9167 1871.95 53.6668C1861.72 53.4024 1859.27 53.7351 1855 55.964C1851.01 58.0516 1849.49 58.3039 1847.36 57.2314C1844.33 55.7081 1836.61 55.3242 1826.7 56.2029C1824.16 56.4283 1821.8 56.1554 1821.46 55.596C1821.11 55.0378 1818.81 54.8806 1816.34 55.2474C1808.69 56.3857 1800.3 56.538 1800.3 55.5387C1800.3 55.0147 1799.48 54.5857 1798.47 54.5857C1797.47 54.5857 1796.65 54.0373 1796.65 53.367C1796.65 52.6968 1795.89 52.1483 1794.97 52.1483C1794.04 52.1483 1793.02 51.1332 1792.69 49.8926C1792.16 47.8659 1791.38 47.7428 1784.95 48.6751C1775.27 50.0778 1749.81 48.0317 1751.09 45.9538C1751.47 45.3408 1748.99 45.0946 1745.42 45.392C1741.92 45.6833 1738.2 45.4712 1737.14 44.9228C1736.09 44.3732 1734.14 44.3147 1732.83 44.7924C1731.27 45.3579 1729.65 44.9228 1728.17 43.5445C1725.08 40.6623 1719.07 39.9384 1713.93 41.8323C1708.01 44.0149 1702.01 44.935 1701.55 43.7309C1701.33 43.1752 1699.93 42.338 1698.42 41.8688C1696.4 41.24 1695.69 41.5069 1695.69 42.8828C1695.69 45.3981 1690.96 47.9061 1689.33 46.2633C1688.65 45.5833 1687.34 45.3164 1686.41 45.6711C1685.49 46.0257 1684.74 45.8271 1684.74 45.2299C1684.74 43.5445 1661.83 45.7734 1659.04 47.7294C1655.55 50.1802 1649.1 47.8001 1650.76 44.6766C1651.77 42.7865 1651.39 42.6244 1647.34 43.2081C1644.82 43.5701 1641.29 44.907 1639.48 46.1793C1635.68 48.8445 1632.43 49.193 1632.43 46.9348C1632.43 44.3988 1628.08 41.3216 1626.2 42.5208C1623.9 43.9747 1619.05 43.8918 1619.05 42.3989C1619.05 41.7287 1617.98 41.1803 1616.68 41.1803C1615.37 41.1803 1613.84 40.3503 1613.28 39.3364C1612.42 37.807 1611.17 37.6985 1605.91 38.6978C1602.42 39.3596 1598.04 41.0377 1596.16 42.427C1593.44 44.4414 1592.12 44.712 1589.63 43.7651C1587.49 42.9473 1586.09 43.001 1585.16 43.9345C1584.17 44.9314 1583.08 44.6255 1581.05 42.7816C1579.54 41.4008 1577.6 40.5283 1576.73 40.8427C1575.87 41.1571 1573.14 40.4466 1570.65 39.2645C1568.17 38.0824 1564.3 37.0026 1562.05 36.8649C1559.8 36.7272 1557.58 36.007 1557.12 35.2636C1556.58 34.3825 1552.85 34.0949 1546.38 34.4361C1538.79 34.8346 1536.6 34.6006 1537.04 33.438C1537.86 31.3126 1529.1 27.2191 1527.4 28.9277C1526.69 29.6345 1526.52 30.2122 1527.01 30.2122C1527.5 30.2122 1527.32 31.309 1526.6 32.6495C1525.89 33.9901 1524.75 35.0869 1524.09 35.0869C1523.29 35.0869 1523.3 34.2728 1524.13 32.73C1524.82 31.4333 1525.36 29.9246 1525.33 29.3786C1525.3 28.8314 1524.2 30.4413 1522.87 32.9542C1521.55 35.4683 1519.62 37.5242 1518.6 37.5242C1517.57 37.5242 1517.07 36.9758 1517.48 36.3055C1517.89 35.6353 1517.68 35.0869 1517.01 35.0869C1516.33 35.0869 1514.32 37.0063 1512.53 39.3522C1508.82 44.2318 1507.38 44.5523 1503.88 41.2838C1500.95 38.5491 1497.89 37.9093 1494.01 39.2194C1492.41 39.7568 1490.57 39.6289 1489.72 38.9208C1488.9 38.2384 1486.6 37.8801 1484.61 38.125C1480.36 38.6491 1473.08 36.3799 1473.08 34.5299C1473.08 32.4935 1465.83 29.8173 1459.14 29.3847C1445.85 28.5243 1445.69 28.4877 1446.07 26.2515C1446.49 23.7422 1441.61 23.2352 1439.3 25.5483C1438.24 26.611 1437.11 26.6317 1434.92 25.6299C1433.3 24.889 1430.82 24.5843 1429.41 24.9523C1428.01 25.3204 1426.86 25.073 1426.86 24.4027C1426.86 22.4273 1421.29 21.9434 1418.88 23.7105C1416.1 25.7506 1412.91 25.792 1410.83 23.8141C1409.94 22.9769 1405.66 22.1287 1401.32 21.9288C1396.97 21.7302 1392.18 20.7601 1390.68 19.7718C1389.03 18.6908 1386.73 18.2813 1384.9 18.742C1382.55 19.3318 1381.85 19.0369 1381.85 17.466C1381.85 16.0462 1381.18 15.638 1379.64 16.1279C1378.42 16.5142 1375.27 16.0414 1372.64 15.0774C1370.01 14.1122 1368.29 13.2835 1368.82 13.236C1369.35 13.1897 1368.66 11.9503 1367.3 10.483C1365.94 9.01694 1364.82 7.17672 1364.82 6.39433C1364.82 4.49319 1348.12 4.83077 1344.54 6.80503C1343.08 7.60692 1340.62 8.23088 1339.06 8.19066C1337.51 8.14922 1335.41 8.23943 1334.41 8.38811C1330.24 9.00841 1328.07 8.25769 1328.81 6.44796C1329.21 5.44255 1329.82 3.93505 1330.16 3.0966C1330.95 1.16987 1324.71 0.651945 1322.52 2.4629C1321.35 3.4354 1321.16 3.26111 1321.74 1.74507C1322.74 -0.856802 1321.58 -0.641077 1314.95 3.01374ZM220.263 28.1099C220.112 29.5675 218.444 29.2848 217.921 27.7139C217.654 26.9096 218.091 26.4708 218.894 26.7389C219.697 27.007 220.313 27.6237 220.263 28.1099ZM476.836 31.4308C476.836 32.1011 477.416 32.6495 478.124 32.6495C478.832 32.6495 479.074 32.1011 478.66 31.4308C478.247 30.7606 477.668 30.2122 477.372 30.2122C477.076 30.2122 476.836 30.7606 476.836 31.4308ZM1530.25 32.6495C1530.25 33.3198 1529.71 33.8682 1529.04 33.8682C1528.37 33.8682 1527.82 33.3198 1527.82 32.6495C1527.82 31.9792 1528.37 31.4308 1529.04 31.4308C1529.71 31.4308 1530.25 31.9792 1530.25 32.6495ZM1535.12 33.2589C1535.12 34.2643 1534.59 35.0869 1533.94 35.0869C1533.29 35.0869 1533.08 34.2643 1533.46 33.2589C1533.85 32.2534 1534.38 31.4308 1534.64 31.4308C1534.9 31.4308 1535.12 32.2534 1535.12 33.2589ZM745.056 35.0869C744.642 35.7571 743.789 36.3055 743.159 36.3055C742.529 36.3055 742.015 35.7571 742.015 35.0869C742.015 34.4166 742.869 33.8682 743.911 33.8682C744.953 33.8682 745.469 34.4166 745.056 35.0869ZM65.4591 95.6344C66.3361 95.9866 67.3859 95.9427 67.7897 95.5381C68.1936 95.1335 67.4759 94.8459 66.1938 94.8983C64.7767 94.9568 64.4884 95.2457 65.4591 95.6344ZM53.5467 121.033C55.8968 123.871 54.2206 124.405 51.705 121.62C50.4898 120.276 50.0617 119.176 50.7526 119.176C51.4423 119.176 52.7001 120.012 53.5467 121.033ZM2119.94 171.351C2120.2 172.147 2119.55 172.797 2118.49 172.797C2117.43 172.797 2116.57 171.93 2116.57 170.868C2116.57 168.716 2119.19 169.09 2119.94 171.351ZM1952.35 207.458C1952.35 207.754 1951.8 208.334 1951.13 208.748C1950.46 209.163 1949.92 208.92 1949.92 208.211C1949.92 207.502 1950.46 206.92 1951.13 206.92C1951.8 206.92 1952.35 207.162 1952.35 207.458ZM1752.46 217.158C1752.09 218.132 1752.51 219.531 1753.4 220.267C1754.6 221.267 1755.18 221.157 1755.68 219.837C1756.06 218.863 1755.64 217.464 1754.75 216.728C1753.55 215.729 1752.97 215.839 1752.46 217.158ZM1991.28 227.638C1991.28 228.308 1991.82 228.857 1992.49 228.857C1993.16 228.857 1993.71 228.308 1993.71 227.638C1993.71 226.968 1993.16 226.419 1992.49 226.419C1991.82 226.419 1991.28 226.968 1991.28 227.638ZM81.5 250.793C81.5 251.463 80.9526 252.011 80.2835 252.011C79.6145 252.011 79.0671 251.463 79.0671 250.793C79.0671 250.122 79.6145 249.574 80.2835 249.574C80.9526 249.574 81.5 250.122 81.5 250.793ZM1667.52 254.995C1667.79 256.384 1667.35 256.97 1666.3 256.62C1665.4 256.321 1664.48 255.097 1664.25 253.903C1663.98 252.513 1664.42 251.927 1665.46 252.277C1666.36 252.577 1667.29 253.8 1667.52 254.995ZM1593.51 263.517C1593.51 264.803 1591.17 265.344 1590.48 264.218C1590.06 263.536 1590.57 262.979 1591.61 262.979C1592.65 262.979 1593.51 263.221 1593.51 263.517ZM1589.86 267.245C1589.86 268.295 1588.76 269.073 1587.28 269.073C1585.12 269.073 1584.94 268.772 1586.21 267.245C1587.04 266.239 1588.2 265.417 1588.79 265.417C1589.38 265.417 1589.86 266.239 1589.86 267.245ZM1503.49 273.338C1503.49 274.344 1503 275.166 1502.41 275.166C1501.81 275.166 1501 274.344 1500.62 273.338C1500.19 272.224 1500.62 271.51 1501.7 271.51C1502.69 271.51 1503.49 272.333 1503.49 273.338ZM1257.93 296.209C1256.72 297.404 1256.59 297.263 1257.25 295.527C1257.7 294.325 1258.38 293.649 1258.76 294.024C1259.13 294.398 1258.76 295.382 1257.93 296.209ZM1309.7 299.769C1309.31 300.74 1309.02 300.451 1308.96 299.032C1308.91 297.747 1309.2 297.028 1309.6 297.433C1310 297.837 1310.05 298.889 1309.7 299.769Z" fill="white"/>
</svg>
